<svg width="228" height="231" viewBox="0 0 228 231" fill="none" xmlns="http://www.w3.org/2000/svg">
<path d="M161.468 129.137C161.468 94.1788 148.698 80.4543 116.311 66.0604C104.973 61.021 83.4856 63.9418 71.1544 64.6269C52.9839 65.6363 58.2524 90.8317 58.2524 103.333" stroke="white" stroke-width="3" stroke-linecap="round"/>
<path d="M58.2524 109.784C58.2524 145.216 64.7034 183.579 64.7034 216.225C64.7034 263.663 91.1277 163.476 93.733 161.392C108.974 149.199 102.863 110.467 114.878 95.4483C125.31 82.4085 135.665 29.2243 135.665 13.0188" stroke="white" stroke-width="3" stroke-linecap="round"/>
<path d="M135.664 13.0188C135.664 49.3383 194.45 132.726 225.979 148.49" stroke="white" stroke-width="3" stroke-linecap="round"/>
<path d="M225.979 148.49C200.449 148.49 166.318 154.23 144.983 142.039C120.689 128.157 127.155 100.17 111.294 82.5463C92.2978 61.4394 103.388 33.9097 96.6001 10.1517C90.0044 -12.9331 45.6114 21.8149 40.333 32.3718C28.2201 56.5976 23.2874 82.4069 9.86988 106.558C-8.41889 139.478 8.90609 145.609 32.4484 167.843C47.4842 182.043 138.21 233.712 148.567 213" stroke="white" stroke-width="3" stroke-linecap="round"/>
<path d="M148.567 90.4309V213" stroke="white" stroke-width="3" stroke-linecap="round"/>
<path d="M84.0565 32.3718C102.908 32.3718 150.814 14.8169 166.486 27.3544C186.093 43.0401 192.414 73.3015 193.724 96.8819C194.743 115.232 212.012 152.422 195.157 169.277C178.723 185.711 169.714 215.328 148.567 225.902" stroke="white" stroke-width="3" stroke-linecap="round"/>
</svg>
