<svg width="186" height="243" viewBox="0 0 186 243" fill="none" xmlns="http://www.w3.org/2000/svg">
<path d="M100.298 105.705C102.84 85.3655 184.161 96.5606 184.161 134.734C184.161 172.759 108.251 178.909 84.1703 160.18C51.668 134.9 38.8837 91.6161 75.9274 61.9812C102.015 41.1111 171.259 55.2165 171.259 92.8027" stroke="white" stroke-width="3" stroke-linecap="round"/>
<path d="M171.259 99.2537C130.251 99.2537 83.675 105.705 39.3716 105.705C-12.4306 105.705 -5.84158 33.5006 29.3367 13.9571C76.8489 -12.4386 99.99 6.63433 119.651 50.8712C139.566 95.6813 100.298 121.841 100.298 163.764" stroke="white" stroke-width="3" stroke-linecap="round"/>
<path d="M100.298 163.764C98.9897 175.536 53.6549 240.504 42.2387 241.176C-2.428 243.803 10.1069 180.95 16.0763 154.087C22.0173 127.353 46.6943 83.8764 71.2683 70.2242C94.3055 57.4257 151.906 -15.1852 151.906 47.6457" stroke="white" stroke-width="3" stroke-linecap="round"/>
</svg>
