<svg width="458" height="317" viewBox="0 0 458 317" fill="none" xmlns="http://www.w3.org/2000/svg">
<path d="M633 316.5C633 274.937 624.813 233.78 608.908 195.381C593.002 156.981 569.689 122.09 540.299 92.7007C510.91 63.311 476.019 39.9977 437.619 24.0921C399.22 8.18651 358.063 5.74197e-06 316.5 1.38347e-05C274.937 2.19273e-05 233.78 8.18655 195.381 24.0922C156.981 39.9978 122.09 63.311 92.7007 92.7008C63.3109 122.091 39.9977 156.981 24.0921 195.381C8.1865 233.78 -1.02955e-06 274.937 1.38347e-05 316.5L316.5 316.5L633 316.5Z" fill="#FF6262"/>
</svg>
