<svg width="91" height="183" viewBox="0 0 91 183" fill="none" xmlns="http://www.w3.org/2000/svg">
<path d="M4.57764e-05 183C11.9503 183 23.7836 180.633 34.8242 176.035C45.8648 171.437 55.8966 164.697 64.3467 156.2C72.7969 147.704 79.4999 137.617 84.073 126.516C88.6462 115.414 91 103.516 91 91.5C91 79.484 88.6462 67.5857 84.073 56.4844C79.4998 45.3831 72.7968 35.2963 64.3467 26.7997C55.8966 18.3031 45.8648 11.5633 34.8242 6.965C23.7836 2.36671 11.9503 -8.34804e-06 -7.3958e-07 -7.30332e-06L3.77772e-05 91.5L4.57764e-05 183Z" fill="#FF6262"/>
</svg>
