<svg width="380" height="277" viewBox="0 0 380 277" fill="none" xmlns="http://www.w3.org/2000/svg">
<path d="M554 277C554 240.624 546.835 204.604 532.915 170.997C518.994 137.389 498.59 106.853 472.869 81.1314C447.147 55.4096 416.61 35.0059 383.003 21.0854C349.396 7.16482 313.376 5.02536e-06 277 1.21081e-05C240.624 1.91908e-05 204.604 7.16484 170.997 21.0854C137.389 35.006 106.853 55.4096 81.1314 81.1315C55.4096 106.853 35.0059 137.39 21.0853 170.997C7.1648 204.604 1.0518e-05 240.624 1.21081e-05 277L277 277L554 277Z" fill="#FF6262"/>
</svg>
