<svg width="196" height="191" viewBox="0 0 196 191" fill="none" xmlns="http://www.w3.org/2000/svg">
<path d="M381 190.5C381 165.483 376.073 140.711 366.499 117.599C356.926 94.4863 342.893 73.4857 325.204 55.7961C307.514 38.1066 286.514 24.0745 263.401 14.5009C240.289 4.92743 215.517 3.45607e-06 190.5 8.32702e-06C165.483 1.3198e-05 140.711 4.92745 117.599 14.501C94.4862 24.0745 73.4857 38.1066 55.7961 55.7962C38.1065 73.4858 24.0744 94.4863 14.5009 117.599C4.92737 140.711 -2.32841e-05 165.483 -2.21906e-05 190.5L190.5 190.5L381 190.5Z" fill="#FF6262"/>
</svg>
