<svg width="217" height="108" viewBox="0 0 217 108" fill="none" xmlns="http://www.w3.org/2000/svg">
<path d="M4.61186e-09 4.57764e-05C4.54649e-07 14.1828 2.80644 28.2267 8.25907 41.3298C13.7117 54.433 21.7038 66.3388 31.7789 76.3675C41.8541 86.3963 53.815 94.3515 66.9789 99.779C80.1427 105.206 94.2516 108 108.5 108C122.748 108 136.857 105.206 150.021 99.779C163.185 94.3515 175.146 86.3962 185.221 76.3675C195.296 66.3388 203.288 54.433 208.741 41.3298C214.194 28.2266 217 14.1828 217 -1.85598e-06L108.5 4.10337e-05L4.61186e-09 4.57764e-05Z" fill="#4A3AFF"/>
</svg>
