<svg width="196" height="194" viewBox="0 0 196 194" fill="none" xmlns="http://www.w3.org/2000/svg">
<path d="M388 194C388 168.524 382.982 143.297 373.233 119.759C363.483 96.2222 349.193 74.8358 331.179 56.8213C313.164 38.8067 291.778 24.5168 268.241 14.7674C244.703 5.01796 219.476 3.51957e-06 194 8.48001e-06C168.524 1.34405e-05 143.297 5.01798 119.759 14.7674C96.2222 24.5168 74.8358 38.8068 56.8212 56.8213C38.8067 74.8359 24.5167 96.2223 14.7673 119.759C5.01792 143.297 -3.11486e-05 168.524 -2.20376e-05 194L194 194L388 194Z" fill="#FF6262"/>
</svg>
