<svg width="344" height="141" viewBox="0 0 344 141" fill="none" xmlns="http://www.w3.org/2000/svg">
<g filter="url(#filter0_dd_2711_5907)">
<path d="M22 32C22 24.268 28.268 18 36 18H308C315.732 18 322 24.268 322 32V101C322 108.732 315.732 115 308 115H36C28.268 115 22 108.732 22 101V32Z" fill="white"/>
<path d="M36 18.5H308C315.456 18.5 321.5 24.5442 321.5 32V101C321.5 108.456 315.456 114.5 308 114.5H36C28.5442 114.5 22.5 108.456 22.5 101V32C22.5 24.5442 28.5442 18.5 36 18.5Z" stroke="#FBFCFF"/>
</g>
<defs>
<filter id="filter0_dd_2711_5907" x="0" y="0" width="344" height="141" filterUnits="userSpaceOnUse" color-interpolation-filters="sRGB">
<feFlood flood-opacity="0" result="BackgroundImageFix"/>
<feColorMatrix in="SourceAlpha" type="matrix" values="0 0 0 0 0 0 0 0 0 0 0 0 0 0 0 0 0 0 127 0" result="hardAlpha"/>
<feOffset dy="4"/>
<feGaussianBlur stdDeviation="11"/>
<feColorMatrix type="matrix" values="0 0 0 0 0.0323264 0 0 0 0 0.0598209 0 0 0 0 0.204167 0 0 0 0.1 0"/>
<feBlend mode="normal" in2="BackgroundImageFix" result="effect1_dropShadow_2711_5907"/>
<feColorMatrix in="SourceAlpha" type="matrix" values="0 0 0 0 0 0 0 0 0 0 0 0 0 0 0 0 0 0 127 0" result="hardAlpha"/>
<feOffset dy="-3"/>
<feGaussianBlur stdDeviation="4"/>
<feComposite in2="hardAlpha" operator="out"/>
<feColorMatrix type="matrix" values="0 0 0 0 0.078875 0 0 0 0 0.0770833 0 0 0 0 0.166667 0 0 0 0.1 0"/>
<feBlend mode="normal" in2="effect1_dropShadow_2711_5907" result="effect2_dropShadow_2711_5907"/>
<feBlend mode="normal" in="SourceGraphic" in2="effect2_dropShadow_2711_5907" result="shape"/>
</filter>
</defs>
</svg>
