<svg width="115" height="230" viewBox="0 0 115 230" fill="none" xmlns="http://www.w3.org/2000/svg">
<path d="M-7.62939e-06 229.322C15.102 229.322 30.0562 226.356 44.0086 220.594C57.961 214.831 70.6385 206.386 81.3173 195.738C91.996 185.091 100.467 172.451 106.246 158.54C112.025 144.628 115 129.718 115 114.661C115 99.6035 112.025 84.6935 106.246 70.7822C100.467 56.8709 91.996 44.2308 81.3173 33.5836C70.6385 22.9363 57.961 14.4905 44.0086 8.72825C30.0561 2.966 15.102 0.000223195 -4.05415e-05 0.000223855L-5.01198e-06 114.661L-7.62939e-06 229.322Z" fill="#FFD600"/>
</svg>
