<svg width="87" height="86" viewBox="0 0 87 86" fill="none" xmlns="http://www.w3.org/2000/svg">
<rect opacity="0.1" x="0.483398" width="86" height="86" rx="15.4567" fill="#FF6262"/>
<path fill-rule="evenodd" clip-rule="evenodd" d="M49.2524 64.2585V63.243C49.2607 60.354 51.6006 58.0141 54.4896 58.0059H62.7731C65.6621 58.0141 68.002 60.354 68.0103 63.243V64.2585C68.0103 64.9491 67.4504 65.509 66.7597 65.509H50.503C49.8123 65.509 49.2524 64.9491 49.2524 64.2585Z" stroke="#FF6262" stroke-width="4" stroke-linecap="round" stroke-linejoin="round"/>
<path fill-rule="evenodd" clip-rule="evenodd" d="M53.8168 48.1016C53.2105 45.9288 54.1335 43.619 56.0702 42.4625C58.0069 41.3059 60.4781 41.5887 62.1035 43.153C63.7288 44.7172 64.1061 47.1757 63.0245 49.1553C61.943 51.1349 59.6703 52.1457 57.4759 51.623C55.7067 51.2016 54.3057 49.8533 53.8168 48.1016Z" stroke="#FF6262" stroke-width="4" stroke-linecap="round" stroke-linejoin="round"/>
<path fill-rule="evenodd" clip-rule="evenodd" d="M17.9893 59.2565V58.2411C17.9975 55.3521 20.3374 53.0121 23.2264 53.0039H31.5099C34.3989 53.0121 36.7388 55.3521 36.7471 58.2411V59.2565C36.7471 59.9472 36.1872 60.507 35.4965 60.507H19.2398C18.5491 60.507 17.9893 59.9472 17.9893 59.2565Z" stroke="#FF6262" stroke-width="4" stroke-linecap="round" stroke-linejoin="round"/>
<path fill-rule="evenodd" clip-rule="evenodd" d="M22.5537 43.0996C21.9473 40.9268 22.8703 38.6171 24.807 37.4605C26.7437 36.3039 29.215 36.5868 30.8403 38.151C32.4656 39.7152 32.8429 42.1738 31.7613 44.1534C30.6798 46.133 28.4071 47.1437 26.2127 46.6211C24.4435 46.1997 23.0425 44.8513 22.5537 43.0996Z" stroke="#FF6262" stroke-width="4" stroke-linecap="round" stroke-linejoin="round"/>
<circle cx="45.5007" cy="27.9934" r="10.0042" stroke="#FF6262" stroke-width="4" stroke-linecap="round" stroke-linejoin="round"/>
<path d="M48.8645 26.0127L44.6628 30.2119L42.1367 27.6934" stroke="#FF6262" stroke-width="4" stroke-linecap="round" stroke-linejoin="round"/>
</svg>
