<svg width="87" height="87" viewBox="0 0 87 87" fill="none" xmlns="http://www.w3.org/2000/svg">
<rect opacity="0.1" x="0.516602" y="0.144531" width="86" height="86" rx="15.4567" fill="#FFD600"/>
<path fill-rule="evenodd" clip-rule="evenodd" d="M61.5 48V48C58.7375 48 56.5 45.7625 56.5 43V43C56.5 40.2375 58.7375 38 61.5 38V38C64.2625 38 66.5 40.2375 66.5 43V43C66.5 45.7625 64.2625 48 61.5 48Z" stroke="#FFD600" stroke-width="4" stroke-linecap="round" stroke-linejoin="round"/>
<path fill-rule="evenodd" clip-rule="evenodd" d="M49 60.5V60.5C49 63.2625 46.7625 65.5 44 65.5V65.5C41.2375 65.5 39 63.2625 39 60.5V60.5C39 57.7375 41.2375 55.5 44 55.5V55.5C46.7625 55.5 49 57.7375 49 60.5Z" stroke="#FFD600" stroke-width="4" stroke-linecap="round" stroke-linejoin="round"/>
<path fill-rule="evenodd" clip-rule="evenodd" d="M61.5 65.5V65.5C58.7375 65.5 56.5 63.2625 56.5 60.5V60.5C56.5 57.7375 58.7375 55.5 61.5 55.5V55.5C64.2625 55.5 66.5 57.7375 66.5 60.5V60.5C66.5 63.2625 64.2625 65.5 61.5 65.5Z" stroke="#FFD600" stroke-width="4" stroke-linecap="round" stroke-linejoin="round"/>
<path fill-rule="evenodd" clip-rule="evenodd" d="M44 30.5V30.5C41.2375 30.5 39 28.2625 39 25.5V25.5C39 22.7375 41.2375 20.5 44 20.5V20.5C46.7625 20.5 49 22.7375 49 25.5V25.5C49 28.2625 46.7625 30.5 44 30.5Z" stroke="#FFD600" stroke-width="4" stroke-linecap="round" stroke-linejoin="round"/>
<path fill-rule="evenodd" clip-rule="evenodd" d="M56.5 25.5V25.5C56.5 22.7375 58.7375 20.5 61.5 20.5V20.5C64.2625 20.5 66.5 22.7375 66.5 25.5V25.5C66.5 28.2625 64.2625 30.5 61.5 30.5V30.5C58.7375 30.5 56.5 28.2625 56.5 25.5Z" stroke="#FFD600" stroke-width="4" stroke-linecap="round" stroke-linejoin="round"/>
<path d="M47.5249 56.9754L57.9749 46.5254" stroke="#FFD600" stroke-width="4" stroke-linecap="round" stroke-linejoin="round"/>
<path d="M30.0249 56.9754L40.4749 46.5254" stroke="#FFD600" stroke-width="4" stroke-linecap="round" stroke-linejoin="round"/>
<path d="M47.5249 39.4754L57.9749 29.0254" stroke="#FFD600" stroke-width="4" stroke-linecap="round" stroke-linejoin="round"/>
<path fill-rule="evenodd" clip-rule="evenodd" d="M39 43V43C39 40.2375 41.2375 38 44 38V38C46.7625 38 49 40.2375 49 43V43C49 45.7625 46.7625 48 44 48V48C41.2375 48 39 45.7625 39 43Z" stroke="#FFD600" stroke-width="4" stroke-linecap="round" stroke-linejoin="round"/>
<path d="M30.0249 39.4754L40.4749 29.0254" stroke="#FFD600" stroke-width="4" stroke-linecap="round" stroke-linejoin="round"/>
<path fill-rule="evenodd" clip-rule="evenodd" d="M26.5 48V48C23.7375 48 21.5 45.7625 21.5 43V43C21.5 40.2375 23.7375 38 26.5 38V38C29.2625 38 31.5 40.2375 31.5 43V43C31.5 45.7625 29.2625 48 26.5 48Z" stroke="#FFD600" stroke-width="4" stroke-linecap="round" stroke-linejoin="round"/>
<path fill-rule="evenodd" clip-rule="evenodd" d="M31.5 60.5V60.5C31.5 63.2625 29.2625 65.5 26.5 65.5V65.5C23.7375 65.5 21.5 63.2625 21.5 60.5V60.5C21.5 57.7375 23.7375 55.5 26.5 55.5V55.5C29.2625 55.5 31.5 57.7375 31.5 60.5Z" stroke="#FFD600" stroke-width="4" stroke-linecap="round" stroke-linejoin="round"/>
<path fill-rule="evenodd" clip-rule="evenodd" d="M26.5 30.5V30.5C23.7375 30.5 21.5 28.2625 21.5 25.5V25.5C21.5 22.7375 23.7375 20.5 26.5 20.5V20.5C29.2625 20.5 31.5 22.7375 31.5 25.5V25.5C31.5 28.2625 29.2625 30.5 26.5 30.5Z" stroke="#FFD600" stroke-width="4" stroke-linecap="round" stroke-linejoin="round"/>
</svg>
