<svg width="47" height="52" viewBox="0 0 47 52" fill="none" xmlns="http://www.w3.org/2000/svg">
<path d="M27.2783 19.9451L24.9845 17.6514H22.0511L19.7573 19.9451L16.5286 45.9139C16.1484 48.9783 18.5398 51.6856 21.6273 51.6856H25.4083C28.4984 51.6856 30.8872 48.9783 30.507 45.9139L27.2783 19.9451Z" fill="#103DA0"/>
<path opacity="0.35" d="M46.4465 15.4918C45.0286 12.9257 41.8692 8.98288 35.8535 8.98288C34.0195 8.98288 32.3037 9.36047 30.7214 9.94354L37.5668 3.09816C38.3014 2.3661 37.97 1.12803 36.9734 0.840341C34.3432 0.0825972 29.6554 -0.433696 25.6843 3.5374C24.7237 4.49806 24.0327 5.51267 23.5164 6.54269C22.9975 5.51267 22.3066 4.49806 21.3459 3.5374C17.3748 -0.433696 12.6897 0.0825972 10.0568 0.840341C9.06276 1.12803 8.7314 2.3661 9.46603 3.09816L16.3114 9.94354C14.7291 9.36047 13.0133 8.98288 11.1793 8.98288C5.16101 8.98288 2.00418 12.9257 0.586296 15.4918C0.046885 16.4653 0.735276 17.652 1.84492 17.652H10.83C10.3445 18.0065 9.86417 18.3943 9.40181 18.8592C5.43072 22.8278 5.94701 27.5155 6.70476 30.1458C6.99244 31.1424 8.22795 31.4737 8.96258 30.7417L22.0497 17.652H24.9831L38.0702 30.7417C38.8023 31.4737 40.0404 31.1424 40.328 30.1458C41.0858 27.5155 41.6021 22.8278 37.631 18.8592C37.1661 18.3943 36.6857 18.0065 36.2003 17.652H45.1853C46.2975 17.652 46.9833 16.4653 46.4465 15.4918Z" fill="#103DA0"/>
</svg>
