<svg width="86" height="87" viewBox="0 0 86 87" fill="none" xmlns="http://www.w3.org/2000/svg">
<rect opacity="0.1" x="-0.000976562" y="0.144531" width="86" height="86" rx="15.4567" fill="#FF6262"/>
<path d="M28 50.5H30.5" stroke="#FF6262" stroke-width="4" stroke-linecap="round" stroke-linejoin="round"/>
<path d="M55.5 30.5H58" stroke="#FF6262" stroke-width="4" stroke-linecap="round" stroke-linejoin="round"/>
<path d="M38.5807 44.9196C37.0018 43.3407 36.3852 41.0394 36.9631 38.8825C37.541 36.7257 39.2257 35.041 41.3825 34.4631C43.5394 33.8852 45.8407 34.5018 47.4196 36.0807" stroke="#FF6262" stroke-width="4" stroke-linecap="round" stroke-linejoin="round"/>
<path d="M38 58H28C23.8579 58 20.5 54.6421 20.5 50.5V30.5C20.5 26.3579 23.8579 23 28 23H58C62.1421 23 65.5 26.3579 65.5 30.5V38" stroke="#FF6262" stroke-width="4" stroke-linecap="round" stroke-linejoin="round"/>
<path d="M45.5 46.75V64C45.5028 66.2086 49.9771 68 55.5 68C61.0229 68 65.4972 66.2086 65.5 64L65.4971 46.75" stroke="#FF6262" stroke-width="4" stroke-linecap="round" stroke-linejoin="round"/>
<path d="M65.4971 46.75C65.4971 48.8206 61.02 50.5 55.4972 50.5C49.9743 50.5 45.5 48.8206 45.5 46.75C45.5 44.6768 49.98 43 55.5 43C61.02 43 65.4972 44.6794 65.5 46.75" stroke="#FF6262" stroke-width="4" stroke-linecap="round" stroke-linejoin="round"/>
<path d="M65.4986 55.5C65.4986 57.5706 61.0215 59.25 55.4986 59.25C49.9758 59.25 45.5015 57.5705 45.5015 55.5" stroke="#FF6262" stroke-width="4" stroke-linecap="round" stroke-linejoin="round"/>
</svg>
