<svg width="47" height="48" viewBox="0 0 47 48" fill="none" xmlns="http://www.w3.org/2000/svg">
<path opacity="0.35" d="M36.4531 6.03223V13.7947C36.4531 15.223 35.2965 16.3822 33.8656 16.3822H26.1032V24.1446C26.1032 25.5729 24.9466 26.7321 23.5157 26.7321H15.7532V34.4945C15.7532 35.9228 14.5966 37.082 13.1658 37.082H5.40332V47.4319H39.0406C43.328 47.4319 46.803 43.9569 46.803 39.6695V6.03223H36.4531Z" fill="#FF6262"/>
<path d="M5.4025 47.4321H2.81502C1.38673 47.4321 0.227539 46.2729 0.227539 44.8446V37.0822C0.227539 34.223 2.54333 31.9072 5.4025 31.9072H10.5775V26.7322C10.5775 23.8731 12.8933 21.5573 15.7524 21.5573H20.9274V16.3823C20.9274 13.5231 23.2432 11.2073 26.1024 11.2073H31.2773V6.03238C31.2773 3.17322 33.5931 0.857422 36.4523 0.857422H44.2147C45.643 0.857422 46.8022 2.01661 46.8022 3.4449V6.03238H36.4523V16.3823H26.1024V26.7322H15.7524V37.0822H5.4025V47.4321Z" fill="#FF6262"/>
</svg>
