<svg width="478" height="694" viewBox="0 0 478 694" fill="none" xmlns="http://www.w3.org/2000/svg">
<rect width="481.695" height="693.171" fill="#0E2C70"/>
<path d="M481.271 3.5L179.845 304.926L481.271 692.748L481.271 3.5Z" fill="#142999"/>
<circle cx="321.348" cy="536.348" r="156.348" fill="#FFD600"/>
<rect width="262.733" height="236.119" fill="#103DA0"/>
<path d="M262.989 0.000244141C262.989 17.209 259.588 34.2493 252.98 50.1481C246.372 66.047 236.686 80.493 224.475 92.6614C212.265 104.83 197.769 114.482 181.815 121.068C165.862 127.653 148.763 131.043 131.495 131.043C114.226 131.043 97.1274 127.653 81.1737 121.068C65.2201 114.482 50.7242 104.83 38.5138 92.6614C26.3034 80.493 16.6176 66.0469 10.0094 50.1481C3.40116 34.2492 -5.60593e-05 17.209 -5.53071e-05 0.000186869L131.495 0.000238393L262.989 0.000244141Z" fill="#FF6262"/>
</svg>
