<svg width="196" height="32" viewBox="0 0 196 32" fill="none" xmlns="http://www.w3.org/2000/svg">
<path opacity="0.35" d="M176.296 0.118164H19.9188C9.11896 0.118164 0.371582 2.48724 0.371582 5.4122V26.5883C0.371582 29.5133 9.11896 31.8824 19.9188 31.8824H176.296C187.096 31.8824 195.844 29.5133 195.844 26.5883V5.4122C195.844 2.48724 187.096 0.118164 176.296 0.118164Z" fill="#FF6262"/>
<path d="M98.1056 26.5882C116.998 26.5882 132.313 21.8478 132.313 16.0002C132.313 10.1525 116.998 5.41211 98.1056 5.41211C79.2132 5.41211 63.8979 10.1525 63.8979 16.0002C63.8979 21.8478 79.2132 26.5882 98.1056 26.5882Z" fill="#FF6262"/>
<path d="M166.52 18.6476C171.918 18.6476 176.294 17.4624 176.294 16.0005C176.294 14.5386 171.918 13.3535 166.52 13.3535C161.122 13.3535 156.747 14.5386 156.747 16.0005C156.747 17.4624 161.122 18.6476 166.52 18.6476Z" fill="#FF6262"/>
<path d="M29.6886 18.6476C35.0865 18.6476 39.4622 17.4624 39.4622 16.0005C39.4622 14.5386 35.0865 13.3535 29.6886 13.3535C24.2908 13.3535 19.915 14.5386 19.915 16.0005C19.915 17.4624 24.2908 18.6476 29.6886 18.6476Z" fill="#FF6262"/>
</svg>
