<svg width="87" height="82" viewBox="0 0 87 82" fill="none" xmlns="http://www.w3.org/2000/svg">
<rect opacity="0.1" x="0.347656" width="86" height="81.7313" rx="15.4567" fill="#FF6262"/>
<path d="M51.988 32.6439C51.603 29.423 50.123 26.297 47.523 23.8243C41.4205 18.026 31.528 18.026 25.4255 23.8243C19.323 29.6225 19.323 39.0217 25.4255 44.82C31.528 50.6182 41.4205 50.6182 47.523 44.82C49.3255 43.1074 50.5805 41.0788 51.318 38.9244" stroke="#FF6262" stroke-width="4" stroke-linecap="round" stroke-linejoin="round"/>
<path d="M34.708 49.0677C35.093 52.2887 36.573 55.4146 39.173 57.8874C45.2755 63.6856 55.168 63.6856 61.2705 57.8874C67.373 52.0891 67.373 42.6899 61.2705 36.8916C55.168 31.0934 45.2755 31.0934 39.173 36.8916C37.3705 38.6043 36.1155 40.6328 35.378 42.7873" stroke="#FF6262" stroke-width="4" stroke-linecap="round" stroke-linejoin="round"/>
</svg>
