<svg width="46" height="44" viewBox="0 0 46 44" fill="none" xmlns="http://www.w3.org/2000/svg">
<path opacity="0.35" d="M38.9421 43.6391H7.06193C3.28869 43.6391 0.230469 40.5809 0.230469 36.8077V14.0361H45.7735V36.8077C45.7735 40.5809 42.7153 43.6391 38.9421 43.6391Z" fill="#FFB800"/>
<path d="M35.5251 18.5903C37.4116 18.5903 38.9408 17.061 38.9408 15.1745C38.9408 13.2881 37.4116 11.7588 35.5251 11.7588C33.6386 11.7588 32.1094 13.2881 32.1094 15.1745C32.1094 17.061 33.6386 18.5903 35.5251 18.5903Z" fill="#FFB800"/>
<path d="M10.4763 18.5903C12.3627 18.5903 13.892 17.061 13.892 15.1745C13.892 13.2881 12.3627 11.7588 10.4763 11.7588C8.58982 11.7588 7.06055 13.2881 7.06055 15.1745C7.06055 17.061 8.58982 18.5903 10.4763 18.5903Z" fill="#FFB800"/>
<path d="M41.2192 4.92735C40.716 4.92735 35.852 4.92735 29.8335 4.92735C29.8335 2.4111 27.7954 0.373047 25.2792 0.373047C24.4457 0.373047 21.5583 0.373047 20.7249 0.373047C18.2086 0.373047 16.1705 2.4111 16.1705 4.92735C10.152 4.92735 5.28803 4.92735 4.78478 4.92735C2.26852 4.92735 0.230469 6.96541 0.230469 9.48166C0.230469 11.9979 0.230469 16.3131 0.230469 16.3131H45.7735C45.7735 16.3131 45.7735 11.9979 45.7735 9.48166C45.7735 6.96541 43.7355 4.92735 41.2192 4.92735Z" fill="#FFB800"/>
<path d="M23.5893 20.8672H22.4165C21.4806 20.8672 20.7246 21.6232 20.7246 22.5568V32.8382C20.7246 33.7741 21.4806 34.5301 22.4143 34.5301H23.587C24.5229 34.5301 25.2789 33.7741 25.2789 32.8405V22.5591C25.2789 21.6232 24.5229 20.8672 23.5893 20.8672Z" fill="#FFB800"/>
<path d="M29.8328 28.2865V27.1138C29.8328 26.1779 29.0768 25.4219 28.1432 25.4219H17.8596C16.9259 25.4219 16.1699 26.1779 16.1699 27.1115V28.2843C16.1699 29.2202 16.9259 29.9762 17.8596 29.9762H28.1409C29.0768 29.9762 29.8328 29.2202 29.8328 28.2865Z" fill="#FFB800"/>
</svg>
