<svg width="52" height="40" viewBox="0 0 52 40" fill="none" xmlns="http://www.w3.org/2000/svg">
<path opacity="0.35" d="M41.9436 32.5265H10.0558C6.28161 32.5265 3.22266 29.4676 3.22266 25.6934V7.47179C3.22266 3.69763 6.28161 0.638672 10.0558 0.638672H41.9436C45.7178 0.638672 48.7768 3.69763 48.7768 7.47179V25.6934C48.7768 29.4676 45.7178 32.5265 41.9436 32.5265Z" fill="#FFB800"/>
<path d="M47.6383 32.5273C47.2374 32.5273 4.76275 32.5273 4.36187 32.5273C2.47593 32.5273 0.945312 34.058 0.945312 35.9439C0.945312 37.8298 2.47593 39.3605 4.36187 39.3605C4.76275 39.3605 47.2374 39.3605 47.6383 39.3605C49.5242 39.3605 51.0548 37.8298 51.0548 35.9439C51.0548 34.058 49.5242 32.5273 47.6383 32.5273Z" fill="#FFB800"/>
</svg>
