<svg width="154" height="154" viewBox="0 0 154 154" fill="none" xmlns="http://www.w3.org/2000/svg">
<circle cx="2.29456" cy="2.29456" r="2.29456" fill="#00B2FF"/>
<circle cx="20.8844" cy="2.29456" r="2.29456" fill="#00B2FF"/>
<circle cx="39.4733" cy="2.29456" r="2.29456" fill="#00B2FF"/>
<circle cx="58.0641" cy="2.29456" r="2.29456" fill="#00B2FF"/>
<circle cx="76.65" cy="2.29456" r="2.29456" fill="#00B2FF"/>
<circle cx="95.2399" cy="2.29456" r="2.29456" fill="#00B2FF"/>
<circle cx="113.831" cy="2.29456" r="2.29456" fill="#00B2FF"/>
<circle cx="132.42" cy="2.29456" r="2.29456" fill="#00B2FF"/>
<circle cx="151.009" cy="2.29456" r="2.29456" fill="#00B2FF"/>
<circle cx="2.29456" cy="76.651" r="2.29456" fill="#00B2FF"/>
<circle cx="20.8844" cy="76.651" r="2.29456" fill="#00B2FF"/>
<circle cx="39.4733" cy="76.651" r="2.29456" fill="#00B2FF"/>
<circle cx="58.0641" cy="76.651" r="2.29456" fill="#00B2FF"/>
<circle cx="76.65" cy="76.651" r="2.29456" fill="#00B2FF"/>
<circle cx="95.2399" cy="76.651" r="2.29456" fill="#00B2FF"/>
<circle cx="113.831" cy="76.651" r="2.29456" fill="#00B2FF"/>
<circle cx="132.42" cy="76.651" r="2.29456" fill="#00B2FF"/>
<circle cx="151.009" cy="76.651" r="2.29456" fill="#00B2FF"/>
<circle cx="2.29456" cy="20.8834" r="2.29456" fill="#00B2FF"/>
<circle cx="20.8844" cy="20.8834" r="2.29456" fill="#00B2FF"/>
<circle cx="39.4733" cy="20.8834" r="2.29456" fill="#00B2FF"/>
<circle cx="58.0641" cy="20.8834" r="2.29456" fill="#00B2FF"/>
<circle cx="76.65" cy="20.8834" r="2.29456" fill="#00B2FF"/>
<circle cx="95.2399" cy="20.8834" r="2.29456" fill="#00B2FF"/>
<circle cx="113.831" cy="20.8834" r="2.29456" fill="#00B2FF"/>
<circle cx="132.42" cy="20.8834" r="2.29456" fill="#00B2FF"/>
<circle cx="151.009" cy="20.8834" r="2.29456" fill="#00B2FF"/>
<circle cx="2.29456" cy="95.2399" r="2.29456" fill="#00B2FF"/>
<circle cx="20.8844" cy="95.2399" r="2.29456" fill="#00B2FF"/>
<circle cx="39.4733" cy="95.2399" r="2.29456" fill="#00B2FF"/>
<circle cx="58.0641" cy="95.2399" r="2.29456" fill="#00B2FF"/>
<circle cx="76.65" cy="95.2399" r="2.29456" fill="#00B2FF"/>
<circle cx="95.2399" cy="95.2399" r="2.29456" fill="#00B2FF"/>
<circle cx="113.831" cy="95.2399" r="2.29456" fill="#00B2FF"/>
<circle cx="132.42" cy="95.2399" r="2.29456" fill="#00B2FF"/>
<circle cx="151.009" cy="95.2399" r="2.29456" fill="#00B2FF"/>
<circle cx="2.29456" cy="39.4733" r="2.29456" fill="#00B2FF"/>
<circle cx="20.8844" cy="39.4733" r="2.29456" fill="#00B2FF"/>
<circle cx="39.4733" cy="39.4733" r="2.29456" fill="#00B2FF"/>
<circle cx="58.0641" cy="39.4733" r="2.29456" fill="#00B2FF"/>
<circle cx="76.65" cy="39.4733" r="2.29456" fill="#00B2FF"/>
<circle cx="95.2399" cy="39.4733" r="2.29456" fill="#00B2FF"/>
<circle cx="113.831" cy="39.4733" r="2.29456" fill="#00B2FF"/>
<circle cx="132.42" cy="39.4733" r="2.29456" fill="#00B2FF"/>
<circle cx="151.009" cy="39.4733" r="2.29456" fill="#00B2FF"/>
<circle cx="2.29456" cy="113.83" r="2.29456" fill="#00B2FF"/>
<circle cx="20.8844" cy="113.83" r="2.29456" fill="#00B2FF"/>
<circle cx="39.4733" cy="113.83" r="2.29456" fill="#00B2FF"/>
<circle cx="58.0641" cy="113.83" r="2.29456" fill="#00B2FF"/>
<circle cx="76.65" cy="113.83" r="2.29456" fill="#00B2FF"/>
<circle cx="95.2399" cy="113.83" r="2.29456" fill="#00B2FF"/>
<circle cx="113.831" cy="113.83" r="2.29456" fill="#00B2FF"/>
<circle cx="132.42" cy="113.83" r="2.29456" fill="#00B2FF"/>
<circle cx="151.009" cy="113.83" r="2.29456" fill="#00B2FF"/>
<circle cx="2.29456" cy="58.0621" r="2.29456" fill="#00B2FF"/>
<circle cx="20.8844" cy="58.0621" r="2.29456" fill="#00B2FF"/>
<circle cx="39.4733" cy="58.0621" r="2.29456" fill="#00B2FF"/>
<circle cx="58.0641" cy="58.0621" r="2.29456" fill="#00B2FF"/>
<circle cx="76.65" cy="58.0621" r="2.29456" fill="#00B2FF"/>
<circle cx="95.2399" cy="58.0621" r="2.29456" fill="#00B2FF"/>
<circle cx="113.831" cy="58.0621" r="2.29456" fill="#00B2FF"/>
<circle cx="132.42" cy="58.0621" r="2.29456" fill="#00B2FF"/>
<circle cx="151.009" cy="58.0621" r="2.29456" fill="#00B2FF"/>
<circle cx="2.29456" cy="132.419" r="2.29456" fill="#00B2FF"/>
<circle cx="20.8844" cy="132.419" r="2.29456" fill="#00B2FF"/>
<circle cx="39.4733" cy="132.419" r="2.29456" fill="#00B2FF"/>
<circle cx="58.0641" cy="132.419" r="2.29456" fill="#00B2FF"/>
<circle cx="76.65" cy="132.419" r="2.29456" fill="#00B2FF"/>
<circle cx="95.2399" cy="132.419" r="2.29456" fill="#00B2FF"/>
<circle cx="113.831" cy="132.419" r="2.29456" fill="#00B2FF"/>
<circle cx="132.42" cy="132.419" r="2.29456" fill="#00B2FF"/>
<circle cx="151.009" cy="132.419" r="2.29456" fill="#00B2FF"/>
<circle cx="2.29456" cy="151.007" r="2.29456" fill="#00B2FF"/>
<circle cx="20.8844" cy="151.007" r="2.29456" fill="#00B2FF"/>
<circle cx="39.4733" cy="151.007" r="2.29456" fill="#00B2FF"/>
<circle cx="58.0641" cy="151.007" r="2.29456" fill="#00B2FF"/>
<circle cx="76.65" cy="151.007" r="2.29456" fill="#00B2FF"/>
<circle cx="95.2399" cy="151.007" r="2.29456" fill="#00B2FF"/>
<circle cx="113.831" cy="151.007" r="2.29456" fill="#00B2FF"/>
<circle cx="132.42" cy="151.007" r="2.29456" fill="#00B2FF"/>
<circle cx="151.009" cy="151.007" r="2.29456" fill="#00B2FF"/>
</svg>
