<svg width="165" height="30" viewBox="0 0 165 30" fill="none" xmlns="http://www.w3.org/2000/svg">
<rect x="45.1357" width="29.1355" height="29.087" rx="14.5435" fill="white"/>
<path d="M62.1546 8.43832V8.43555H62.8787L63.1432 8.4883C63.3196 8.52254 63.4797 8.56742 63.6236 8.62295C63.7675 8.67848 63.9068 8.74326 64.0413 8.81729C64.1759 8.89132 64.298 8.96676 64.4076 9.04356C64.5162 9.11946 64.6136 9.19997 64.7 9.28511C64.7853 9.37117 64.9186 9.39338 65.0996 9.35174C65.2806 9.31009 65.4755 9.25225 65.6844 9.17822C65.8932 9.10419 66.0998 9.0209 66.304 8.92835C66.5082 8.8358 66.6326 8.77704 66.6772 8.75205C66.7208 8.72615 66.744 8.71226 66.7468 8.7104L66.7496 8.70624L66.7635 8.6993L66.7774 8.69236L66.7913 8.68542L66.8053 8.67848L66.8081 8.67431L66.8122 8.67154L66.8164 8.66876L66.8192 8.66459L66.8331 8.66043L66.847 8.65765L66.8443 8.67848L66.8401 8.6993L66.8331 8.72012L66.8262 8.74094L66.8192 8.75483L66.8122 8.76871L66.8053 8.78953C66.8006 8.80341 66.796 8.82192 66.7913 8.84506C66.7867 8.8682 66.7426 8.96073 66.6591 9.12269C66.5755 9.28465 66.4711 9.44891 66.3458 9.61549C66.2205 9.78207 66.1081 9.90792 66.0088 9.99307C65.9086 10.0791 65.8422 10.1393 65.8097 10.1735C65.7772 10.2087 65.7378 10.2411 65.6913 10.2707L65.6217 10.3165L65.6078 10.3235L65.5939 10.3304L65.5911 10.3346L65.5869 10.3373L65.5827 10.3401L65.58 10.3443L65.566 10.3512L65.5521 10.3582L65.5493 10.3623L65.5451 10.3651L65.541 10.3679L65.5382 10.372L65.5354 10.3762L65.5312 10.379L65.527 10.3818L65.5243 10.3859H65.5939L65.9838 10.3026C66.2437 10.2471 66.492 10.18 66.7287 10.1013L67.1046 9.97641L67.1464 9.96253L67.1673 9.95559L67.1812 9.94865L67.1951 9.94171L67.2091 9.93477L67.223 9.92783L67.2508 9.92366L67.2787 9.92089V9.94865L67.2717 9.95143L67.2648 9.95559L67.262 9.95975L67.2578 9.96253L67.2536 9.96531L67.2508 9.96947L67.2481 9.97364L67.2439 9.97641L67.2397 9.97919L67.2369 9.98335L67.2341 9.98752L67.23 9.99029L67.223 10.0042L67.216 10.0181L67.2119 10.0208C67.21 10.0236 67.1511 10.1023 67.035 10.2568C66.919 10.4123 66.8563 10.491 66.847 10.4928C66.8378 10.4956 66.8248 10.5095 66.8081 10.5345C66.7923 10.5604 66.6939 10.6636 66.5129 10.844C66.3319 11.0245 66.1546 11.185 65.981 11.3257C65.8065 11.4673 65.7183 11.6413 65.7164 11.8477C65.7136 12.0531 65.703 12.2854 65.6844 12.5445C65.6658 12.8037 65.631 13.0836 65.58 13.3844C65.5289 13.6851 65.45 14.0252 65.3432 14.4047C65.2365 14.7841 65.1065 15.1543 64.9534 15.5152C64.8002 15.8761 64.6401 16.2 64.473 16.4869C64.3059 16.7738 64.1527 17.0167 64.0135 17.2157C63.8743 17.4147 63.7327 17.6021 63.5888 17.7779C63.4449 17.9538 63.263 18.1518 63.043 18.372C62.8221 18.5914 62.7014 18.7117 62.681 18.733C62.6596 18.7533 62.5687 18.8292 62.4081 18.9606C62.2484 19.093 62.0767 19.2253 61.8929 19.3576C61.71 19.4891 61.542 19.5987 61.3888 19.6866C61.2356 19.7746 61.0509 19.875 60.8346 19.9879C60.6193 20.1017 60.3863 20.2072 60.1356 20.3044C59.885 20.4015 59.6205 20.4918 59.342 20.5751C59.0635 20.6584 58.7943 20.7231 58.5344 20.7694C58.2745 20.8157 57.9797 20.855 57.6502 20.8874L57.1559 20.936V20.9429H56.2508V20.936L56.1325 20.9291C56.0536 20.9244 55.9886 20.9198 55.9375 20.9152C55.8865 20.9105 55.6939 20.8851 55.3597 20.8388C55.0255 20.7926 54.7633 20.7463 54.573 20.7C54.3827 20.6537 54.0996 20.5658 53.7236 20.4363C53.3477 20.3067 53.026 20.1757 52.7587 20.0434C52.4923 19.912 52.3252 19.8287 52.2574 19.7935C52.1906 19.7593 52.1154 19.7167 52.0319 19.6658L51.9065 19.5895L51.9038 19.5853L51.8996 19.5825L51.8954 19.5798L51.8926 19.5756L51.8787 19.5686L51.8648 19.5617L51.862 19.5575L51.8578 19.5548L51.8536 19.552L51.8508 19.5478L51.8481 19.5437L51.8439 19.5409H51.8369V19.5131L51.8508 19.5159L51.8648 19.5201L51.9274 19.527C51.9692 19.5316 52.0829 19.5386 52.2686 19.5478C52.4542 19.5571 52.6515 19.5571 52.8603 19.5478C53.0692 19.5386 53.2827 19.5177 53.5008 19.4854C53.719 19.453 53.9766 19.3974 54.2736 19.3188C54.5707 19.2401 54.8436 19.1466 55.0924 19.0384C55.3402 18.9292 55.5166 18.8477 55.6215 18.794C55.7254 18.7413 55.8842 18.6432 56.0977 18.4998L56.4179 18.2846L56.4207 18.2804L56.4249 18.2777L56.4291 18.2749L56.4319 18.2707L56.4346 18.2665L56.4388 18.2638L56.443 18.261L56.4458 18.2568L56.4597 18.2527L56.4736 18.2499L56.4764 18.236L56.4806 18.2221L56.4848 18.2193L56.4875 18.2152L56.3762 18.2082C56.3019 18.2036 56.23 18.199 56.1603 18.1944C56.0907 18.1897 55.9816 18.1689 55.8331 18.1319C55.6846 18.0949 55.5245 18.0393 55.3527 17.9653C55.181 17.8913 55.0139 17.8034 54.8515 17.7016C54.689 17.5998 54.5716 17.5151 54.4992 17.4475C54.4277 17.3809 54.3349 17.2865 54.2207 17.1643C54.1075 17.0413 54.0091 16.9149 53.9255 16.7854C53.842 16.6558 53.7622 16.5063 53.686 16.337L53.5705 16.0843L53.5635 16.0635L53.5565 16.0427L53.5524 16.0288L53.5496 16.0149L53.5705 16.0177L53.5913 16.0219L53.7445 16.0427C53.8466 16.0566 54.0068 16.0612 54.2249 16.0566C54.443 16.052 54.5939 16.0427 54.6774 16.0288C54.761 16.0149 54.812 16.0057 54.8306 16.0011L54.8584 15.9941L54.8932 15.9872L54.9281 15.9802L54.9308 15.9761L54.935 15.9733L54.9392 15.9705L54.942 15.9664L54.9141 15.9594L54.8863 15.9525L54.8584 15.9455L54.8306 15.9386L54.8027 15.9316C54.7842 15.927 54.7517 15.9178 54.7053 15.9039C54.6589 15.89 54.5335 15.8391 54.3293 15.7512C54.1251 15.6633 53.9627 15.5777 53.842 15.4944C53.721 15.4108 53.6056 15.3195 53.4967 15.2209C53.3881 15.121 53.2688 14.9923 53.1388 14.835C53.0089 14.6777 52.8928 14.4949 52.7907 14.2867C52.6886 14.0784 52.612 13.8795 52.561 13.6898C52.5101 13.5012 52.4766 13.3083 52.4607 13.1137L52.4356 12.8222L52.4496 12.8249L52.4635 12.8291L52.4774 12.836L52.4913 12.843L52.5053 12.8499L52.5192 12.8569L52.735 12.954C52.8789 13.0188 53.0576 13.0743 53.2711 13.1206C53.4846 13.1669 53.6122 13.1923 53.654 13.197L53.7167 13.2039H53.842L53.8392 13.1997L53.835 13.197L53.8308 13.1942L53.8281 13.19L53.8253 13.1859L53.8211 13.1831L53.8169 13.1803L53.8141 13.1761L53.8002 13.1692L53.7863 13.1623L53.7835 13.1581L53.7793 13.1553L53.7751 13.1525L53.7724 13.1484L53.7584 13.1414L53.7445 13.1345L53.7417 13.1303C53.739 13.1285 53.699 13.0989 53.622 13.0415C53.5459 12.9832 53.466 12.9078 53.3825 12.8152C53.2989 12.7227 53.2154 12.6255 53.1319 12.5237C53.0482 12.4217 52.9736 12.3125 52.9091 12.1975C52.8441 12.0818 52.7754 11.9346 52.703 11.756C52.6315 11.5784 52.5772 11.3993 52.5401 11.2188C52.503 11.0384 52.4821 10.8602 52.4774 10.6844C52.4728 10.5085 52.4774 10.3582 52.4913 10.2332C52.5053 10.1083 52.5331 9.96715 52.5749 9.80983C52.6167 9.65251 52.677 9.48593 52.7559 9.31009L52.8743 9.04634L52.8812 9.02552L52.8882 9.0047L52.8924 9.00192L52.8951 8.99775L52.8979 8.99359L52.9021 8.99081L52.9063 8.99359L52.9091 8.99775L52.9119 9.00192L52.916 9.0047L52.9202 9.00747L52.923 9.01164L52.9258 9.0158L52.93 9.01858L52.9369 9.03246L52.9439 9.04634L52.9481 9.04912L52.9508 9.05328L53.1388 9.26151C53.2641 9.40032 53.4127 9.55534 53.5844 9.72654C53.7561 9.89774 53.8513 9.98659 53.8698 9.99307C53.8884 10.0005 53.9116 10.0217 53.9394 10.0569C53.9673 10.0912 54.0601 10.1731 54.2179 10.3026C54.3757 10.4322 54.5823 10.5826 54.8375 10.7538C55.0928 10.925 55.3759 11.0939 55.6869 11.2605C55.9979 11.427 56.3321 11.5774 56.6894 11.7116C57.0468 11.8458 57.2975 11.9337 57.4413 11.9754C57.5852 12.017 57.8312 12.0702 58.1793 12.135C58.5274 12.1998 58.7897 12.2414 58.966 12.2599C59.1424 12.2785 59.2631 12.2891 59.3281 12.2919L59.4255 12.2947L59.4228 12.2738L59.4186 12.253L59.3907 12.0795C59.3722 11.9638 59.3629 11.8019 59.3629 11.5936C59.3629 11.3854 59.3791 11.1934 59.4116 11.0175C59.4441 10.8417 59.4928 10.6636 59.5578 10.4831C59.6228 10.3026 59.6864 10.1578 59.7486 10.0486C59.8117 9.94032 59.8943 9.81677 59.9964 9.67796C60.0985 9.53914 60.2308 9.3957 60.3932 9.24762C60.5557 9.09955 60.7413 8.96767 60.9502 8.852C61.1591 8.73632 61.3517 8.64839 61.5281 8.58825C61.7044 8.5281 61.853 8.48876 61.9736 8.47025C62.0943 8.45175 62.1546 8.4411 62.1546 8.43832Z" fill="#8184A3"/>
<rect x="90.2715" y="0.144531" width="29.1351" height="29.0867" rx="14.5434" fill="white"/>
<path d="M101.798 14.7886C101.798 13.2174 103.074 11.9435 104.648 11.9435C106.221 11.9435 107.497 13.2174 107.497 14.7886C107.497 16.3597 106.221 17.6337 104.648 17.6337C103.074 17.6337 101.798 16.3597 101.798 14.7886ZM100.258 14.7886C100.258 17.209 102.223 19.171 104.648 19.171C107.072 19.171 109.037 17.209 109.037 14.7886C109.037 12.3681 107.072 10.4061 104.648 10.4061C102.223 10.4061 100.258 12.368 100.258 14.7886ZM108.185 10.2324C108.185 10.4349 108.245 10.633 108.358 10.8014C108.471 10.9699 108.631 11.1012 108.818 11.1788C109.006 11.2564 109.212 11.2768 109.411 11.2373C109.61 11.1979 109.793 11.1004 109.936 10.9572C110.08 10.8141 110.178 10.6316 110.217 10.433C110.257 10.2343 110.237 10.0284 110.159 9.84122C110.082 9.65405 109.95 9.49404 109.781 9.38144C109.613 9.26883 109.414 9.20869 109.212 9.20861C108.94 9.20874 108.678 9.31662 108.486 9.50857C108.294 9.70052 108.186 9.96084 108.185 10.2324ZM101.194 21.7357C100.36 21.6978 99.9073 21.5592 99.6062 21.4421C99.2071 21.2869 98.9223 21.1022 98.6229 20.8037C98.3235 20.5052 98.1381 20.2211 97.9834 19.8227C97.8661 19.5222 97.7272 19.0698 97.6893 18.2377C97.6479 17.3381 97.6396 17.0679 97.6396 14.7887C97.6396 12.5095 97.6486 12.2401 97.6893 11.3397C97.7273 10.5076 97.8672 10.0561 97.9834 9.75476C98.1388 9.35629 98.3239 9.07199 98.6229 8.77307C98.9219 8.47415 99.2064 8.28912 99.6062 8.13467C99.9071 8.01751 100.36 7.87891 101.194 7.84108C102.095 7.79971 102.366 7.79144 104.648 7.79144C106.93 7.79144 107.2 7.80025 108.102 7.84122C108.936 7.87911 109.388 8.01874 109.69 8.13481C110.089 8.28925 110.374 8.4747 110.673 8.7732C110.973 9.07171 111.157 9.35643 111.313 9.7549C111.43 10.0553 111.569 10.5077 111.607 11.3398C111.648 12.2402 111.657 12.5097 111.657 14.7888C111.657 17.068 111.648 17.3375 111.607 18.2379C111.569 19.07 111.429 19.5222 111.313 19.8228C111.157 20.2213 110.972 20.5056 110.673 20.8038C110.374 21.102 110.089 21.2871 109.69 21.4422C109.389 21.5594 108.936 21.698 108.102 21.7358C107.201 21.7772 106.931 21.7854 104.648 21.7854C102.365 21.7854 102.095 21.777 101.194 21.7357ZM101.123 6.30559C100.213 6.34697 99.591 6.49103 99.0479 6.70201C98.4858 6.91988 98.0094 7.21218 97.5336 7.68643C97.0578 8.16069 96.7657 8.63644 96.5475 9.1983C96.3362 9.74083 96.1919 10.3613 96.1504 11.2699C96.1083 12.1799 96.0986 12.4708 96.0986 14.7886C96.0986 17.1063 96.1083 17.3972 96.1504 18.3072C96.1919 19.2159 96.3362 19.8363 96.5475 20.3788C96.7657 20.94 97.0578 21.4167 97.5336 21.8907C98.0093 22.3648 98.4852 22.6567 99.0479 22.8751C99.5921 23.0861 100.213 23.2302 101.123 23.2716C102.035 23.3129 102.326 23.3232 104.648 23.3232C106.969 23.3232 107.261 23.3136 108.172 23.2716C109.082 23.2302 109.704 23.0861 110.247 22.8751C110.809 22.6567 111.286 22.365 111.762 21.8907C112.237 21.4165 112.529 20.94 112.748 20.3788C112.959 19.8363 113.104 19.2158 113.145 18.3072C113.186 17.3966 113.196 17.1063 113.196 14.7886C113.196 12.4708 113.186 12.1799 113.145 11.2699C113.103 10.3613 112.959 9.74049 112.748 9.1983C112.529 8.63713 112.237 8.16144 111.762 7.68643C111.287 7.21143 110.809 6.91988 110.248 6.70201C109.704 6.49103 109.082 6.34629 108.173 6.30559C107.261 6.26401 106.97 6.25391 104.649 6.25391C102.327 6.25391 102.035 6.26353 101.123 6.30559Z" fill="#8184A3"/>
<rect x="135.406" width="29.1351" height="29.0867" rx="14.5433" fill="white"/>
<path d="M142.486 9.07983C142.486 8.60039 142.655 8.20485 142.992 7.89323C143.33 7.58159 143.768 7.42578 144.308 7.42578C144.838 7.42578 145.267 7.57919 145.594 7.88604C145.932 8.20246 146.1 8.61477 146.1 9.12298C146.1 9.58324 145.936 9.96677 145.609 10.2736C145.271 10.59 144.828 10.7483 144.279 10.7483H144.264C143.734 10.7483 143.305 10.59 142.978 10.2736C142.65 9.95719 142.486 9.55926 142.486 9.07983ZM142.674 21.665V12.0571H145.883V21.665H142.674ZM147.661 21.665H150.871V16.3001C150.871 15.9645 150.909 15.7056 150.986 15.5234C151.121 15.1974 151.326 14.9217 151.601 14.6964C151.875 14.4711 152.22 14.3584 152.634 14.3584C153.713 14.3584 154.253 15.0823 154.253 16.5302V21.665H157.462V16.1563C157.462 14.7371 157.125 13.6608 156.45 12.9273C155.776 12.1938 154.884 11.827 153.776 11.827C152.533 11.827 151.564 12.3592 150.871 13.4235V13.4523H150.856L150.871 13.4235V12.0571H147.661C147.681 12.3639 147.69 13.318 147.69 14.9193C147.69 16.5206 147.681 18.7692 147.661 21.665Z" fill="#8184A3"/>
<rect width="29.1355" height="29.087" rx="14.5435" fill="white"/>
<path d="M15.9739 22.6872V15.2571H18.5978L18.9906 12.3615H15.9739V10.5127C15.9739 9.67438 16.2188 9.10308 17.4836 9.10308L19.0968 9.10236V6.51252C18.8178 6.4773 17.8601 6.39844 16.7461 6.39844C14.4202 6.39844 12.8278 7.74785 12.8278 10.226V12.3615H10.1973V15.2571H12.8278V22.6871L15.9739 22.6872Z" fill="#8184A3"/>
</svg>
