<svg width="942" height="30" viewBox="0 0 942 30" fill="none" xmlns="http://www.w3.org/2000/svg">
<rect x="167.117" width="107.577" height="29.087" rx="14.5435" fill="#009EFF"/>
<path d="M229.956 8.43832V8.43555H232.629L233.606 8.4883C234.257 8.52254 234.848 8.56742 235.38 8.62295C235.911 8.67848 236.425 8.74326 236.922 8.81729C237.419 8.89132 237.87 8.96676 238.274 9.04356C238.675 9.11946 239.035 9.19997 239.354 9.28511C239.669 9.37117 240.161 9.39338 240.829 9.35174C241.498 9.31009 242.217 9.25225 242.988 9.17822C243.76 9.10419 244.522 9.0209 245.276 8.92835C246.03 8.8358 246.49 8.77704 246.654 8.75205C246.815 8.72615 246.901 8.71226 246.911 8.7104L246.921 8.70624L246.973 8.6993L247.024 8.69236L247.076 8.68542L247.127 8.67848L247.137 8.67431L247.153 8.67154L247.168 8.66876L247.179 8.66459L247.23 8.66043L247.281 8.65765L247.271 8.67848L247.256 8.6993L247.23 8.72012L247.204 8.74094L247.179 8.75483L247.153 8.76871L247.127 8.78953C247.11 8.80341 247.093 8.82192 247.076 8.84506C247.059 8.8682 246.896 8.96073 246.587 9.12269C246.279 9.28465 245.893 9.44891 245.431 9.61549C244.968 9.78207 244.553 9.90792 244.186 9.99307C243.816 10.0791 243.571 10.1393 243.451 10.1735C243.331 10.2087 243.186 10.2411 243.014 10.2707L242.757 10.3165L242.706 10.3235L242.654 10.3304L242.644 10.3346L242.629 10.3373L242.613 10.3401L242.603 10.3443L242.551 10.3512L242.5 10.3582L242.49 10.3623L242.474 10.3651L242.459 10.3679L242.449 10.372L242.438 10.3762L242.423 10.379L242.408 10.3818L242.397 10.3859H242.654L244.094 10.3026C245.054 10.2471 245.97 10.18 246.844 10.1013L248.232 9.97641L248.387 9.96253L248.464 9.95559L248.515 9.94865L248.567 9.94171L248.618 9.93477L248.67 9.92783L248.772 9.92366L248.875 9.92089V9.94865L248.849 9.95143L248.824 9.95559L248.814 9.95975L248.798 9.96253L248.783 9.96531L248.772 9.96947L248.762 9.97364L248.747 9.97641L248.731 9.97919L248.721 9.98335L248.711 9.98752L248.695 9.99029L248.67 10.0042L248.644 10.0181L248.628 10.0208C248.622 10.0236 248.404 10.1023 247.975 10.2568C247.547 10.4123 247.316 10.491 247.281 10.4928C247.247 10.4956 247.199 10.5095 247.137 10.5345C247.079 10.5604 246.716 10.6636 246.047 10.844C245.379 11.0245 244.725 11.185 244.084 11.3257C243.439 11.4673 243.114 11.6413 243.107 11.8477C243.097 12.0531 243.057 12.2854 242.988 12.5445C242.92 12.8037 242.791 13.0836 242.603 13.3844C242.414 13.6851 242.123 14.0252 241.729 14.4047C241.335 14.7841 240.855 15.1543 240.289 15.5152C239.724 15.8761 239.133 16.2 238.516 16.4869C237.899 16.7738 237.333 17.0167 236.819 17.2157C236.305 17.4147 235.782 17.6021 235.251 17.7779C234.72 17.9537 234.048 18.1518 233.236 18.372C232.42 18.5914 231.974 18.7117 231.899 18.733C231.82 18.7533 231.484 18.8292 230.891 18.9606C230.302 19.093 229.668 19.2253 228.989 19.3576C228.314 19.4891 227.693 19.5987 227.128 19.6866C226.562 19.7746 225.88 19.875 225.082 19.9879C224.287 20.1017 223.426 20.2072 222.501 20.3044C221.575 20.4015 220.599 20.4918 219.57 20.5751C218.542 20.6584 217.548 20.7231 216.588 20.7694C215.629 20.8157 214.541 20.855 213.324 20.8874L211.499 20.936V20.9429H208.157V20.936L207.72 20.9291C207.429 20.9244 207.189 20.9198 207 20.9152C206.812 20.9105 206.1 20.8851 204.867 20.8388C203.633 20.7926 202.664 20.7463 201.962 20.7C201.259 20.6537 200.214 20.5658 198.826 20.4363C197.438 20.3067 196.25 20.1757 195.263 20.0434C194.279 19.912 193.662 19.8287 193.412 19.7935C193.165 19.7593 192.888 19.7167 192.579 19.6658L192.116 19.5895L192.106 19.5853L192.091 19.5825L192.075 19.5798L192.065 19.5756L192.014 19.5686L191.962 19.5617L191.952 19.5575L191.936 19.5548L191.921 19.552L191.911 19.5478L191.901 19.5437L191.885 19.5409H191.859V19.5131L191.911 19.5159L191.962 19.5201L192.194 19.527C192.348 19.5316 192.768 19.5386 193.453 19.5478C194.139 19.5571 194.867 19.5571 195.638 19.5478C196.409 19.5386 197.198 19.5177 198.003 19.4854C198.809 19.453 199.76 19.3974 200.856 19.3188C201.953 19.2401 202.961 19.1466 203.88 19.0384C204.795 18.9292 205.446 18.8477 205.833 18.794C206.217 18.7413 206.803 18.6432 207.591 18.4998L208.774 18.2846L208.784 18.2804L208.8 18.2777L208.815 18.2749L208.825 18.2707L208.836 18.2665L208.851 18.2638L208.866 18.261L208.877 18.2568L208.928 18.2527L208.98 18.2499L208.99 18.236L209.005 18.2221L209.021 18.2193L209.031 18.2152L208.62 18.2082C208.345 18.2036 208.08 18.199 207.823 18.1944C207.566 18.1897 207.163 18.1689 206.615 18.1319C206.066 18.0949 205.475 18.0393 204.841 17.9653C204.207 17.8913 203.59 17.8034 202.99 17.7016C202.39 17.5998 201.957 17.5151 201.689 17.4475C201.425 17.3809 201.083 17.2865 200.661 17.1643C200.243 17.0413 199.88 16.9149 199.571 16.7854C199.263 16.6558 198.968 16.5063 198.687 16.337L198.26 16.0843L198.234 16.0635L198.209 16.0427L198.193 16.0288L198.183 16.0149L198.26 16.0177L198.337 16.0219L198.903 16.0427C199.28 16.0566 199.871 16.0612 200.677 16.0566C201.482 16.052 202.039 16.0427 202.347 16.0288C202.656 16.0149 202.844 16.0057 202.913 16.0011L203.016 15.9941L203.144 15.9872L203.273 15.9802L203.283 15.9761L203.299 15.9733L203.314 15.9705L203.324 15.9664L203.221 15.9594L203.119 15.9525L203.016 15.9455L202.913 15.9386L202.81 15.9316C202.742 15.927 202.622 15.9178 202.45 15.9039C202.279 15.89 201.816 15.8391 201.062 15.7512C200.308 15.6633 199.708 15.5777 199.263 15.4944C198.816 15.4108 198.39 15.3195 197.988 15.2209C197.587 15.121 197.146 14.9923 196.666 14.835C196.187 14.6777 195.758 14.4949 195.381 14.2867C195.004 14.0784 194.721 13.8795 194.533 13.6898C194.345 13.5012 194.221 13.3083 194.163 13.1137L194.07 12.8222L194.121 12.8249L194.173 12.8291L194.224 12.836L194.276 12.843L194.327 12.8499L194.379 12.8569L195.175 12.954C195.707 13.0188 196.366 13.0743 197.155 13.1206C197.943 13.1669 198.414 13.1923 198.569 13.197L198.8 13.2039H199.263L199.252 13.1997L199.237 13.197L199.222 13.1942L199.211 13.19L199.201 13.1859L199.186 13.1831L199.17 13.1803L199.16 13.1761L199.108 13.1692L199.057 13.1623L199.047 13.1581L199.031 13.1553L199.016 13.1525L199.006 13.1484L198.954 13.1414L198.903 13.1345L198.893 13.1303C198.882 13.1285 198.735 13.0989 198.45 13.0415C198.169 12.9832 197.875 12.9078 197.566 12.8152C197.258 12.7227 196.949 12.6255 196.641 12.5237C196.332 12.4217 196.056 12.3125 195.818 12.1975C195.578 12.0818 195.325 11.9346 195.057 11.756C194.793 11.5784 194.593 11.3993 194.456 11.2188C194.319 11.0384 194.241 10.8602 194.224 10.6844C194.207 10.5085 194.224 10.3582 194.276 10.2332C194.327 10.1083 194.43 9.96715 194.584 9.80983C194.738 9.65251 194.961 9.48593 195.253 9.31009L195.69 9.04634L195.715 9.02552L195.741 9.0047L195.756 9.00192L195.767 8.99775L195.777 8.99359L195.792 8.99081L195.808 8.99359L195.818 8.99775L195.828 9.00192L195.844 9.0047L195.859 9.00747L195.87 9.01164L195.88 9.0158L195.895 9.01858L195.921 9.03246L195.947 9.04634L195.962 9.04912L195.972 9.05328L196.666 9.26151C197.129 9.40032 197.678 9.55534 198.312 9.72654C198.946 9.89774 199.297 9.98659 199.366 9.99307C199.434 10.0005 199.52 10.0217 199.623 10.0569C199.725 10.0912 200.068 10.1731 200.651 10.3026C201.234 10.4322 201.996 10.5826 202.939 10.7538C203.881 10.925 204.927 11.0939 206.075 11.2605C207.223 11.427 208.457 11.5774 209.776 11.7116C211.096 11.8458 212.021 11.9337 212.553 11.9754C213.084 12.017 213.992 12.0702 215.277 12.135C216.563 12.1998 217.531 12.2414 218.182 12.2599C218.833 12.2785 219.279 12.2891 219.519 12.2919L219.879 12.2947L219.869 12.2738L219.853 12.253L219.75 12.0795C219.682 11.9638 219.647 11.8019 219.647 11.5936C219.647 11.3854 219.707 11.1934 219.827 11.0175C219.947 10.8417 220.127 10.6636 220.367 10.4831C220.607 10.3026 220.842 10.1578 221.072 10.0486C221.305 9.94032 221.61 9.81677 221.987 9.67796C222.364 9.53914 222.852 9.3957 223.452 9.24762C224.052 9.09955 224.737 8.96767 225.508 8.852C226.28 8.73632 226.991 8.64839 227.642 8.58825C228.293 8.5281 228.842 8.48876 229.287 8.47025C229.733 8.45175 229.956 8.4411 229.956 8.43832Z" fill="white"/>
<rect x="333.771" y="0.144531" width="107.576" height="29.0867" rx="14.5434" fill="url(#paint0_radial_2134_29531)"/>
<path d="M376.332 14.7886C376.332 13.2174 381.042 11.9435 386.852 11.9435C392.663 11.9435 397.375 13.2174 397.375 14.7886C397.375 16.3597 392.663 17.6337 386.852 17.6337C381.042 17.6337 376.332 16.3597 376.332 14.7886ZM370.644 14.7886C370.644 17.209 377.9 19.171 386.852 19.171C395.804 19.171 403.061 17.209 403.061 14.7886C403.061 12.3681 395.804 10.4061 386.852 10.4061C377.9 10.4061 370.644 12.368 370.644 14.7886H370.644ZM399.915 10.2324C399.915 10.4349 400.136 10.633 400.552 10.8014C400.968 10.9699 401.56 11.1012 402.252 11.1788C402.944 11.2564 403.705 11.2768 404.44 11.2373C405.175 11.1979 405.85 11.1004 406.38 10.9572C406.91 10.8141 407.271 10.6316 407.417 10.433C407.564 10.2343 407.489 10.0284 407.203 9.84122C406.916 9.65405 406.431 9.49404 405.808 9.38144C405.186 9.26883 404.453 9.20869 403.704 9.20861H403.703C402.698 9.20873 401.736 9.31662 401.025 9.50857C400.315 9.70052 399.916 9.96084 399.915 10.2324ZM374.1 21.7357C371.023 21.6978 369.35 21.5592 368.238 21.4421C366.764 21.2869 365.713 21.1022 364.607 20.8037C363.502 20.5052 362.818 20.2211 362.246 19.8227C361.813 19.5222 361.3 19.0698 361.161 18.2377C361.007 17.3381 360.977 17.0679 360.977 14.7887C360.977 12.5095 361.01 12.2401 361.161 11.3397C361.301 10.5076 361.817 10.0561 362.246 9.75476C362.82 9.35629 363.503 9.07199 364.607 8.77307C365.711 8.47415 366.762 8.28912 368.238 8.13467C369.349 8.01751 371.023 7.87891 374.1 7.84108C377.427 7.79971 378.427 7.79144 386.852 7.79144C395.278 7.79144 396.279 7.80025 399.609 7.84122C402.686 7.87911 404.356 8.01874 405.47 8.13481C406.944 8.28925 407.996 8.4747 409.101 8.7732C410.207 9.07171 410.888 9.35643 411.462 9.7549C411.895 10.0553 412.408 10.5077 412.548 11.3398C412.701 12.2402 412.732 12.5097 412.732 14.7888C412.732 17.068 412.701 17.3375 412.548 18.2379C412.408 19.07 411.893 19.5222 411.462 19.8228C410.888 20.2213 410.205 20.5056 409.101 20.8038C407.997 21.102 406.944 21.2871 405.47 21.4422C404.359 21.5594 402.686 21.698 399.609 21.7358C396.281 21.7772 395.282 21.7854 386.852 21.7854C378.423 21.7854 377.426 21.7772 374.1 21.7358V21.7357ZM373.839 6.30559C370.478 6.34697 368.182 6.49103 366.177 6.70201C364.101 6.91988 362.342 7.21218 360.585 7.68643C358.828 8.16069 357.75 8.63644 356.944 9.1983C356.164 9.74083 355.631 10.3613 355.478 11.2699C355.323 12.1799 355.287 12.4708 355.287 14.7886C355.287 17.1063 355.323 17.3972 355.478 18.3072C355.631 19.2159 356.164 19.8363 356.944 20.3788C357.75 20.94 358.829 21.4167 360.585 21.8907C362.342 22.3648 364.099 22.6567 366.177 22.8751C368.186 23.0861 370.478 23.2302 373.839 23.2716C377.206 23.3129 378.28 23.3232 386.852 23.3232C395.424 23.3232 396.5 23.3136 399.866 23.2716C403.227 23.2302 405.521 23.0861 407.528 22.8751C409.603 22.6567 411.363 22.365 413.119 21.8907C414.876 21.4165 415.952 20.94 416.76 20.3788C417.541 19.8363 418.076 19.2158 418.226 18.3072C418.38 17.3966 418.415 17.1063 418.415 14.7886C418.415 12.4708 418.38 12.1799 418.226 11.2699C418.073 10.3613 417.541 9.74049 416.76 9.1983C415.952 8.63713 414.873 8.16144 413.119 7.68643C411.365 7.21143 409.603 6.91988 407.53 6.70201C405.521 6.49103 403.226 6.34629 399.869 6.30559C396.503 6.26401 395.427 6.25391 386.856 6.25391C378.285 6.25391 377.207 6.26353 373.84 6.30559" fill="white"/>
<rect x="500.423" width="107.576" height="29.0867" rx="14.5433" fill="#157EE7"/>
<path d="M526.564 9.07983C526.564 8.60039 527.187 8.20485 528.433 7.89323C529.678 7.58159 531.297 7.42578 533.29 7.42578C535.247 7.42578 536.83 7.57919 538.04 7.88604C539.285 8.20246 539.908 8.61477 539.908 9.12298C539.908 9.58324 539.303 9.96677 538.093 10.2736C536.848 10.59 535.211 10.7483 533.183 10.7483H533.129C531.172 10.7483 529.589 10.59 528.379 10.2736C527.169 9.95719 526.564 9.55926 526.564 9.07983ZM527.258 21.665V12.0571H539.107V21.665H527.258ZM545.672 21.665H557.522V16.3001C557.522 15.9645 557.664 15.7056 557.949 15.5234C558.447 15.1974 559.203 14.9217 560.217 14.6964C561.231 14.4711 562.503 14.3584 564.033 14.3584C568.019 14.3584 570.011 15.0823 570.011 16.5302V21.665H581.86V16.1563C581.86 14.7371 580.615 13.6608 578.124 12.9273C575.633 12.1938 572.342 11.827 568.25 11.827C563.66 11.827 560.084 12.3592 557.522 13.4235V13.4523H557.468L557.522 13.4235V12.0571H545.672C545.744 12.3639 545.779 13.318 545.779 14.9193C545.779 16.5206 545.744 18.7692 545.672 21.665Z" fill="white"/>
<rect x="833.729" width="107.576" height="29.0867" rx="14.5433" fill="#54E447"/>
<path fill-rule="evenodd" clip-rule="evenodd" d="M909.681 7.62585C903.752 6.02157 895.868 5.13762 887.468 5.13672C870.161 5.13672 856.074 8.94396 856.067 13.6237C856.065 15.1196 857.511 16.5798 860.259 17.8669L855.804 22.2651L872.45 21.0848C877.037 21.761 882.2 22.1173 887.456 22.1179H887.469C904.775 22.1179 918.862 18.3102 918.869 13.6304C918.872 11.3626 915.609 9.23012 909.681 7.62585ZM887.469 20.6844H887.458C882.775 20.6839 878.182 20.3439 874.174 19.7011L873.221 19.5482L863.344 20.2486L865.98 17.6454L865.36 17.3785C862.747 16.2553 861.367 14.9571 861.369 13.6242C861.375 9.73461 873.083 6.5702 887.479 6.5702C894.45 6.57092 901.003 7.30567 905.93 8.63909C910.858 9.9725 913.57 11.7449 913.568 13.6299C913.562 17.5198 901.854 20.6844 887.469 20.6844ZM901.784 15.401C901 15.2949 897.142 14.7818 896.423 14.711C895.704 14.6402 895.181 14.6049 894.658 14.8172C894.135 15.0295 892.631 15.5072 892.173 15.6487C891.716 15.7902 891.258 15.808 890.474 15.7018C889.689 15.5956 887.161 15.3717 884.164 14.6492C881.832 14.0869 880.257 13.3924 879.799 13.1801C879.342 12.9677 879.751 12.8529 880.143 12.7472C880.496 12.6522 880.928 12.4995 881.32 12.3757C881.713 12.2519 881.843 12.1634 882.105 12.0219C882.366 11.8803 882.236 11.7565 882.04 11.6503C881.843 11.5442 880.274 10.5003 879.62 10.0757C878.984 9.66218 878.337 9.71813 877.855 9.71165C877.398 9.7055 876.874 9.70419 876.351 9.70419C875.828 9.70419 874.978 9.75727 874.259 9.96957C873.54 10.1819 871.513 10.695 871.513 11.7388C871.513 12.7826 874.325 13.791 874.717 13.9326C875.109 14.0741 880.249 16.2162 888.12 17.1349C889.992 17.3533 891.453 17.4838 892.593 17.5816C894.472 17.743 896.183 17.7202 897.535 17.6656C899.042 17.6047 902.177 17.1526 902.831 16.6572C903.484 16.1618 903.484 15.7372 903.288 15.6487C903.092 15.5603 902.569 15.5072 901.784 15.401Z" fill="white"/>
<rect x="667.074" y="0.246094" width="107.577" height="29.087" rx="14.5435" fill="#FF0000"/>
<path d="M722.244 20.8827L709.443 20.818C705.299 20.7955 701.144 20.8405 697.08 20.6069C690.899 20.258 690.461 18.5472 690.003 17.1121C689.371 15.0946 689.616 13.0405 690.807 11.0399C691.48 9.91728 694.127 9.24743 698.221 9.17454C712.04 8.91 725.951 8.94135 739.74 9.06477C741.196 9.07608 742.663 9.13792 744.098 9.20831C751.187 9.55161 751.359 11.4903 751.819 13.1224C752.277 14.7713 752.084 16.4286 751.208 18.0663C750.505 19.4222 749.161 20.5593 743.487 20.6691C736.379 20.8126 729.434 20.9282 722.305 20.8914C722.305 20.8827 722.265 20.8827 722.244 20.8827ZM714.718 17.4498C720.075 16.6 725.33 15.7643 730.656 14.9202C725.289 14.0703 720.045 13.2347 714.718 12.3905V17.4498Z" fill="white"/>
<rect x="0.461426" width="107.577" height="29.087" rx="14.5435" fill="#1781FE"/>
<path d="M59.442 22.6872V15.2571H69.1301L70.5805 12.3615H59.4417V10.5127C59.4417 9.67438 60.346 9.10308 65.0163 9.10308L70.9726 9.10236V6.51252C69.9424 6.4773 66.4065 6.39844 62.2933 6.39844C53.7052 6.39844 47.8257 7.74785 47.8257 10.226V12.3615H38.1128V15.2571H47.8257V22.6871H59.442V22.6872Z" fill="white"/>
<defs>
<radialGradient id="paint0_radial_2134_29531" cx="0" cy="0" r="1" gradientUnits="userSpaceOnUse" gradientTransform="translate(340.734 28.5941) scale(136.581 36.9294)">
<stop offset="0.09" stop-color="#FA8F21"/>
<stop offset="0.78" stop-color="#EB2482"/>
</radialGradient>
</defs>
</svg>
