<svg width="268" height="30" viewBox="0 0 268 30" fill="none" xmlns="http://www.w3.org/2000/svg">
<rect x="47.4512" width="30.6296" height="29.087" rx="14.5435" fill="#009EFF"/>
<path d="M65.3429 8.43832V8.43555H66.1041L66.3822 8.4883C66.5677 8.52254 66.736 8.56742 66.8872 8.62295C67.0385 8.67848 67.1849 8.74326 67.3264 8.81729C67.4679 8.89132 67.5962 8.96676 67.7114 9.04356C67.8256 9.11946 67.928 9.19997 68.0188 9.28511C68.1086 9.37117 68.2486 9.39338 68.4389 9.35174C68.6292 9.31009 68.8341 9.25225 69.0537 9.17822C69.2733 9.10419 69.4904 9.0209 69.7051 8.92835C69.9198 8.8358 70.0506 8.77704 70.0974 8.75205C70.1433 8.72615 70.1677 8.71226 70.1706 8.7104L70.1735 8.70624L70.1881 8.6993L70.2028 8.69236L70.2174 8.68542L70.2321 8.67848L70.235 8.67431L70.2394 8.67154L70.2438 8.66876L70.2467 8.66459L70.2613 8.66043L70.276 8.65765L70.2731 8.67848L70.2687 8.6993L70.2613 8.72012L70.254 8.74094L70.2467 8.75483L70.2394 8.76871L70.2321 8.78953C70.2272 8.80341 70.2223 8.82192 70.2174 8.84506C70.2125 8.8682 70.1662 8.96073 70.0784 9.12269C69.9905 9.28465 69.8807 9.44891 69.749 9.61549C69.6173 9.78207 69.4992 9.90792 69.3948 9.99307C69.2894 10.0791 69.2196 10.1393 69.1854 10.1735C69.1513 10.2087 69.1098 10.2411 69.061 10.2707L68.9878 10.3165L68.9732 10.3235L68.9585 10.3304L68.9556 10.3346L68.9512 10.3373L68.9468 10.3401L68.9439 10.3443L68.9293 10.3512L68.9146 10.3582L68.9117 10.3623L68.9073 10.3651L68.9029 10.3679L68.9 10.372L68.8971 10.3762L68.8927 10.379L68.8883 10.3818L68.8854 10.3859H68.9585L69.3684 10.3026C69.6417 10.2471 69.9027 10.18 70.1515 10.1013L70.5468 9.97641L70.5907 9.96253L70.6126 9.95559L70.6273 9.94865L70.6419 9.94171L70.6566 9.93477L70.6712 9.92783L70.7005 9.92366L70.7298 9.92089V9.94865L70.7224 9.95143L70.7151 9.95559L70.7122 9.95975L70.7078 9.96253L70.7034 9.96531L70.7005 9.96947L70.6976 9.97364L70.6932 9.97641L70.6888 9.97919L70.6858 9.98335L70.6829 9.98752L70.6785 9.99029L70.6712 10.0042L70.6639 10.0181L70.6595 10.0208C70.6575 10.0236 70.5956 10.1023 70.4736 10.2568C70.3516 10.4123 70.2857 10.491 70.276 10.4928C70.2662 10.4956 70.2525 10.5095 70.235 10.5345C70.2184 10.5604 70.115 10.6636 69.9247 10.844C69.7344 11.0245 69.548 11.185 69.3655 11.3257C69.182 11.4673 69.0893 11.6413 69.0874 11.8477C69.0844 12.0531 69.0732 12.2854 69.0537 12.5445C69.0342 12.8037 68.9976 13.0836 68.9439 13.3844C68.8902 13.6851 68.8073 14.0252 68.6951 14.4047C68.5828 14.7841 68.4462 15.1543 68.2852 15.5152C68.1242 15.8761 67.9558 16.2 67.7802 16.4869C67.6045 16.7738 67.4435 17.0167 67.2971 17.2157C67.1507 17.4147 67.0019 17.6021 66.8507 17.7779C66.6994 17.9538 66.5081 18.1518 66.2769 18.372C66.0446 18.5914 65.9177 18.7117 65.8963 18.733C65.8738 18.7533 65.7782 18.8292 65.6093 18.9606C65.4415 19.093 65.261 19.2253 65.0677 19.3576C64.8755 19.4891 64.6989 19.5987 64.5378 19.6866C64.3768 19.7746 64.1826 19.875 63.9552 19.9879C63.7288 20.1017 63.4839 20.2072 63.2204 20.3044C62.9569 20.4015 62.6788 20.4918 62.386 20.5751C62.0933 20.6584 61.8103 20.7231 61.537 20.7694C61.2638 20.8157 60.9539 20.855 60.6075 20.8874L60.0878 20.936V20.9429H59.1364V20.936L59.0119 20.9291C58.929 20.9244 58.8607 20.9198 58.807 20.9152C58.7534 20.9105 58.5508 20.8851 58.1995 20.8388C57.8482 20.7926 57.5725 20.7463 57.3725 20.7C57.1724 20.6537 56.8748 20.5658 56.4796 20.4363C56.0843 20.3067 55.7462 20.1757 55.4651 20.0434C55.1851 19.912 55.0094 19.8287 54.9382 19.7935C54.8679 19.7593 54.7889 19.7167 54.701 19.6658L54.5693 19.5895L54.5664 19.5853L54.562 19.5825L54.5576 19.5798L54.5546 19.5756L54.54 19.5686L54.5254 19.5617L54.5225 19.5575L54.5181 19.5548L54.5137 19.552L54.5107 19.5478L54.5078 19.5437L54.5034 19.5409H54.4961V19.5131L54.5107 19.5159L54.5254 19.5201L54.5912 19.527C54.6352 19.5316 54.7547 19.5386 54.9499 19.5478C55.1451 19.5571 55.3524 19.5571 55.572 19.5478C55.7916 19.5386 56.016 19.5177 56.2453 19.4854C56.4747 19.453 56.7455 19.3974 57.0578 19.3188C57.3701 19.2401 57.657 19.1466 57.9185 19.0384C58.1791 18.9292 58.3645 18.8477 58.4747 18.794C58.584 18.7413 58.7509 18.6432 58.9754 18.4998L59.312 18.2846L59.315 18.2804L59.3193 18.2777L59.3238 18.2749L59.3267 18.2707L59.3296 18.2665L59.334 18.2638L59.3384 18.261L59.3413 18.2568L59.3559 18.2527L59.3706 18.2499L59.3735 18.236L59.3779 18.2221L59.3823 18.2193L59.3852 18.2152L59.2681 18.2082C59.1901 18.2036 59.1144 18.199 59.0412 18.1944C58.968 18.1897 58.8534 18.1689 58.6972 18.1319C58.5411 18.0949 58.3728 18.0393 58.1922 17.9653C58.0117 17.8913 57.836 17.8034 57.6652 17.7016C57.4945 17.5998 57.371 17.5151 57.2949 17.4475C57.2198 17.3809 57.1222 17.2865 57.0021 17.1643C56.8831 17.0413 56.7796 16.9149 56.6918 16.7854C56.604 16.6558 56.5201 16.5063 56.44 16.337L56.3185 16.0843L56.3112 16.0635L56.3039 16.0427L56.2995 16.0288L56.2966 16.0149L56.3185 16.0177L56.3405 16.0219L56.5015 16.0427C56.6089 16.0566 56.7772 16.0612 57.0065 16.0566C57.2359 16.052 57.3944 16.0427 57.4823 16.0288C57.5701 16.0149 57.6238 16.0057 57.6433 16.0011L57.6726 15.9941L57.7092 15.9872L57.7458 15.9802L57.7487 15.9761L57.7531 15.9733L57.7575 15.9705L57.7604 15.9664L57.7311 15.9594L57.7018 15.9525L57.6726 15.9455L57.6433 15.9386L57.614 15.9316C57.5945 15.927 57.5603 15.9178 57.5115 15.9039C57.4628 15.89 57.331 15.8391 57.1163 15.7512C56.9016 15.6633 56.7308 15.5777 56.604 15.4944C56.4768 15.4108 56.3555 15.3195 56.241 15.2209C56.1268 15.121 56.0014 14.9923 55.8648 14.835C55.7281 14.6777 55.6062 14.4949 55.4988 14.2867C55.3915 14.0784 55.311 13.8795 55.2573 13.6898C55.2038 13.5012 55.1685 13.3083 55.1519 13.1137L55.1255 12.8222L55.1402 12.8249L55.1548 12.8291L55.1694 12.836L55.1841 12.843L55.1987 12.8499L55.2134 12.8569L55.4403 12.954C55.5915 13.0188 55.7794 13.0743 56.0038 13.1206C56.2283 13.1669 56.3625 13.1923 56.4064 13.197L56.4722 13.2039H56.604L56.6011 13.1997L56.5967 13.197L56.5923 13.1942L56.5893 13.19L56.5864 13.1859L56.582 13.1831L56.5776 13.1803L56.5747 13.1761L56.5601 13.1692L56.5454 13.1623L56.5425 13.1581L56.5381 13.1553L56.5337 13.1525L56.5308 13.1484L56.5162 13.1414L56.5015 13.1345L56.4986 13.1303C56.4957 13.1285 56.4537 13.0989 56.3727 13.0415C56.2927 12.9832 56.2088 12.9078 56.1209 12.8152C56.0331 12.7227 55.9453 12.6255 55.8574 12.5237C55.7694 12.4217 55.6911 12.3125 55.6232 12.1975C55.5549 12.0818 55.4827 11.9346 55.4066 11.756C55.3314 11.5784 55.2744 11.3993 55.2353 11.2188C55.1963 11.0384 55.1743 10.8602 55.1694 10.6844C55.1646 10.5085 55.1694 10.3582 55.1841 10.2332C55.1987 10.1083 55.228 9.96715 55.2719 9.80983C55.3158 9.65251 55.3793 9.48593 55.4622 9.31009L55.5866 9.04634L55.594 9.02552L55.6013 9.0047L55.6057 9.00192L55.6086 8.99775L55.6115 8.99359L55.6159 8.99081L55.6203 8.99359L55.6232 8.99775L55.6262 9.00192L55.6305 9.0047L55.635 9.00747L55.6379 9.01164L55.6408 9.0158L55.6452 9.01858L55.6525 9.03246L55.6598 9.04634L55.6642 9.04912L55.6671 9.05328L55.8648 9.26151C55.9965 9.40032 56.1526 9.55534 56.3332 9.72654C56.5137 9.89774 56.6137 9.98659 56.6333 9.99307C56.6528 10.0005 56.6772 10.0217 56.7064 10.0569C56.7357 10.0912 56.8333 10.1731 56.9992 10.3026C57.1651 10.4322 57.3822 10.5826 57.6506 10.7538C57.919 10.925 58.2166 11.0939 58.5435 11.2605C58.8705 11.427 59.2218 11.5774 59.5975 11.7116C59.9732 11.8458 60.2367 11.9337 60.3879 11.9754C60.5392 12.017 60.7978 12.0702 61.1638 12.135C61.5297 12.1998 61.8054 12.2414 61.9908 12.2599C62.1762 12.2785 62.3031 12.2891 62.3714 12.2919L62.4739 12.2947L62.4709 12.2738L62.4665 12.253L62.4373 12.0795C62.4178 11.9638 62.408 11.8019 62.408 11.5936C62.408 11.3854 62.4251 11.1934 62.4592 11.0175C62.4934 10.8417 62.5446 10.6636 62.6129 10.4831C62.6812 10.3026 62.7481 10.1578 62.8135 10.0486C62.8798 9.94032 62.9667 9.81677 63.074 9.67796C63.1814 9.53914 63.3204 9.3957 63.4912 9.24762C63.662 9.09955 63.8572 8.96767 64.0767 8.852C64.2963 8.73632 64.4988 8.64839 64.6842 8.58825C64.8696 8.5281 65.0258 8.48876 65.1526 8.47025C65.2795 8.45175 65.3429 8.4411 65.3429 8.43832V8.43832Z" fill="white"/>
<rect x="94.9004" y="0.144531" width="30.6292" height="29.0867" rx="14.5434" fill="url(#paint0_radial_2711_2501)"/>
<path d="M107.018 14.7886C107.018 13.2174 108.359 11.9435 110.014 11.9435C111.668 11.9435 113.01 13.2174 113.01 14.7886C113.01 16.3597 111.668 17.6337 110.014 17.6337C108.359 17.6337 107.018 16.3597 107.018 14.7886V14.7886ZM105.399 14.7886C105.399 17.209 107.465 19.171 110.014 19.171C112.563 19.171 114.629 17.209 114.629 14.7886C114.629 12.3681 112.563 10.4061 110.014 10.4061C107.465 10.4061 105.399 12.368 105.399 14.7886H105.399ZM113.733 10.2324C113.733 10.4349 113.796 10.633 113.914 10.8014C114.033 10.9699 114.201 11.1012 114.398 11.1788C114.595 11.2564 114.812 11.2768 115.021 11.2373C115.231 11.1979 115.423 11.1004 115.574 10.9572C115.725 10.8141 115.827 10.6316 115.869 10.433C115.911 10.2343 115.889 10.0284 115.808 9.84122C115.726 9.65405 115.588 9.49404 115.411 9.38144C115.234 9.26883 115.025 9.20869 114.812 9.20861H114.811C114.525 9.20874 114.251 9.31662 114.049 9.50857C113.847 9.70052 113.733 9.96084 113.733 10.2324V10.2324ZM106.383 21.7357C105.507 21.6978 105.03 21.5592 104.714 21.4421C104.294 21.2869 103.995 21.1022 103.68 20.8037C103.365 20.5052 103.17 20.2211 103.008 19.8227C102.884 19.5222 102.738 19.0698 102.699 18.2377C102.655 17.3381 102.646 17.0679 102.646 14.7887C102.646 12.5095 102.656 12.2401 102.699 11.3397C102.739 10.5076 102.886 10.0561 103.008 9.75476C103.171 9.35629 103.366 9.07199 103.68 8.77307C103.994 8.47415 104.294 8.28912 104.714 8.13467C105.03 8.01751 105.507 7.87891 106.383 7.84108C107.33 7.79971 107.615 7.79144 110.014 7.79144C112.413 7.79144 112.698 7.80025 113.646 7.84122C114.522 7.87911 114.997 8.01874 115.315 8.13481C115.734 8.28925 116.034 8.4747 116.348 8.7732C116.663 9.07171 116.857 9.35643 117.021 9.7549C117.144 10.0553 117.29 10.5077 117.33 11.3398C117.373 12.2402 117.382 12.5097 117.382 14.7888C117.382 17.068 117.373 17.3375 117.33 18.2379C117.29 19.07 117.143 19.5222 117.021 19.8228C116.857 20.2213 116.663 20.5056 116.348 20.8038C116.034 21.102 115.734 21.2871 115.315 21.4422C114.998 21.5594 114.522 21.698 113.646 21.7358C112.698 21.7772 112.414 21.7854 110.014 21.7854C107.614 21.7854 107.33 21.7772 106.383 21.7358V21.7357ZM106.308 6.30559C105.352 6.34697 104.698 6.49103 104.127 6.70201C103.536 6.91988 103.035 7.21218 102.535 7.68643C102.035 8.16069 101.728 8.63644 101.498 9.1983C101.276 9.74083 101.124 10.3613 101.081 11.2699C101.037 12.1799 101.026 12.4708 101.026 14.7886C101.026 17.1063 101.037 17.3972 101.081 18.3072C101.124 19.2159 101.276 19.8363 101.498 20.3789C101.728 20.94 102.035 21.4167 102.535 21.8907C103.035 22.3648 103.535 22.6566 104.127 22.8751C104.699 23.0861 105.352 23.2302 106.308 23.2716C107.267 23.3129 107.573 23.3232 110.014 23.3232C112.454 23.3232 112.761 23.3136 113.719 23.2716C114.676 23.2302 115.329 23.0861 115.9 22.8751C116.491 22.6566 116.992 22.365 117.493 21.8907C117.993 21.4165 118.299 20.94 118.529 20.3789C118.751 19.8363 118.904 19.2158 118.947 18.3072C118.99 17.3966 119 17.1063 119 14.7886C119 12.4708 118.99 12.1799 118.947 11.2699C118.903 10.3613 118.751 9.74049 118.529 9.1983C118.299 8.63713 117.992 8.16144 117.493 7.68643C116.993 7.21143 116.491 6.91988 115.901 6.70201C115.329 6.49103 114.676 6.34629 113.72 6.30559C112.761 6.26401 112.455 6.25391 110.015 6.25391C107.574 6.25391 107.268 6.26353 106.309 6.30559" fill="white"/>
<rect x="142.35" width="30.6292" height="29.0867" rx="14.5433" fill="#157EE7"/>
<path d="M149.792 9.07983C149.792 8.60039 149.969 8.20485 150.324 7.89323C150.678 7.58159 151.139 7.42578 151.707 7.42578C152.264 7.42578 152.715 7.57919 153.059 7.88604C153.414 8.20246 153.591 8.61477 153.591 9.12298C153.591 9.58324 153.419 9.96677 153.075 10.2736C152.72 10.59 152.254 10.7483 151.676 10.7483H151.661C151.104 10.7483 150.653 10.59 150.309 10.2736C149.964 9.95719 149.792 9.55926 149.792 9.07983ZM149.99 21.665V12.0571H153.363V21.665H149.99ZM155.232 21.665H158.606V16.3001C158.606 15.9645 158.647 15.7056 158.728 15.5234C158.87 15.1974 159.085 14.9217 159.374 14.6964C159.662 14.4711 160.025 14.3584 160.46 14.3584C161.595 14.3584 162.162 15.0823 162.162 16.5302V21.665H165.536V16.1563C165.536 14.7371 165.181 13.6608 164.472 12.9273C163.763 12.1938 162.826 11.827 161.661 11.827C160.354 11.827 159.336 12.3592 158.606 13.4235V13.4523H158.591L158.606 13.4235V12.0571H155.232C155.253 12.3639 155.263 13.318 155.263 14.9193C155.263 16.5206 155.253 18.7692 155.232 21.665Z" fill="white"/>
<rect x="237.25" width="30.6292" height="29.0867" rx="14.5433" fill="#54E447"/>
<path fill-rule="evenodd" clip-rule="evenodd" d="M258.875 7.62585C257.187 6.02157 254.942 5.13762 252.551 5.13672C247.623 5.13672 243.612 8.94396 243.61 13.6237C243.609 15.1196 244.021 16.5798 244.804 17.8669L243.535 22.2651L248.275 21.0848C249.58 21.761 251.051 22.1173 252.547 22.1179H252.551C257.478 22.1179 261.489 18.3102 261.491 13.6304C261.492 11.3626 260.563 9.23012 258.875 7.62585V7.62585ZM252.551 20.6844H252.548C251.214 20.6839 249.906 20.3439 248.766 19.7011L248.494 19.5482L245.682 20.2486L246.432 17.6454L246.256 17.3785C245.512 16.2553 245.119 14.9571 245.12 13.6242C245.121 9.73461 248.455 6.5702 252.554 6.5702C254.538 6.57092 256.404 7.30567 257.807 8.63909C259.21 9.9725 259.982 11.7449 259.982 13.6299C259.98 17.5198 256.646 20.6844 252.551 20.6844V20.6844ZM256.627 15.401C256.403 15.2949 255.305 14.7818 255.1 14.711C254.896 14.6402 254.747 14.6049 254.598 14.8172C254.449 15.0295 254.021 15.5072 253.89 15.6487C253.76 15.7902 253.63 15.808 253.406 15.7018C253.183 15.5956 252.463 15.3717 251.61 14.6492C250.946 14.0869 250.497 13.3924 250.367 13.1801C250.237 12.9677 250.353 12.8529 250.465 12.7472C250.566 12.6522 250.688 12.4995 250.8 12.3757C250.912 12.2519 250.949 12.1634 251.024 12.0219C251.098 11.8803 251.061 11.7565 251.005 11.6503C250.949 11.5442 250.502 10.5003 250.316 10.0757C250.135 9.66218 249.951 9.71813 249.814 9.71165C249.683 9.7055 249.534 9.70419 249.385 9.70419C249.236 9.70419 248.994 9.75727 248.79 9.96957C248.585 10.1819 248.008 10.695 248.008 11.7388C248.008 12.7826 248.808 13.791 248.92 13.9326C249.032 14.0741 250.495 16.2162 252.736 17.1349C253.269 17.3533 253.685 17.4838 254.01 17.5816C254.545 17.743 255.032 17.7202 255.417 17.6656C255.846 17.6047 256.738 17.1526 256.925 16.6572C257.111 16.1618 257.111 15.7372 257.055 15.6487C256.999 15.5603 256.85 15.5072 256.627 15.401" fill="white"/>
<rect x="189.801" y="0.246094" width="30.6296" height="29.087" rx="14.5435" fill="#FF0000"/>
<path d="M205.509 20.8827L201.864 20.818C200.684 20.7955 199.501 20.8405 198.344 20.6069C196.584 20.258 196.459 18.5472 196.329 17.1121C196.149 15.0946 196.219 13.0405 196.558 11.0399C196.749 9.91728 197.503 9.24743 198.669 9.17454C202.603 8.91 206.564 8.94135 210.49 9.06477C210.905 9.07608 211.322 9.13792 211.731 9.20831C213.749 9.55161 213.798 11.4903 213.929 13.1224C214.06 14.7713 214.005 16.4286 213.755 18.0663C213.555 19.4222 213.172 20.5593 211.557 20.6691C209.533 20.8126 207.556 20.9282 205.526 20.8914C205.526 20.8827 205.514 20.8827 205.509 20.8827ZM203.366 17.4498C204.891 16.6 206.387 15.7643 207.904 14.9202C206.376 14.0703 204.882 13.2347 203.366 12.3905V17.4498Z" fill="white"/>
<rect width="30.6296" height="29.087" rx="14.5435" fill="#1781FE"/>
<path d="M16.7936 22.6872V15.2571H19.552L19.965 12.3615H16.7935V10.5127C16.7935 9.67438 17.051 9.10308 18.3807 9.10308L20.0766 9.10236V6.51252C19.7833 6.4773 18.7765 6.39844 17.6054 6.39844C15.1602 6.39844 13.4862 7.74785 13.4862 10.226V12.3615H10.7207V15.2571H13.4862V22.6871H16.7936V22.6872Z" fill="white"/>
<defs>
<radialGradient id="paint0_radial_2711_2501" cx="0" cy="0" r="1" gradientUnits="userSpaceOnUse" gradientTransform="translate(96.8827 28.5941) scale(38.8878 36.9294)">
<stop offset="0.09" stop-color="#FA8F21"/>
<stop offset="0.78" stop-color="#EB2482"/>
</radialGradient>
</defs>
</svg>
