<svg width="146" height="25" viewBox="0 0 146 25" fill="none" xmlns="http://www.w3.org/2000/svg">
<path d="M7.48713 7.93272L10.0032 1.60909C10.0765 1.42608 10.1891 1.27215 10.3286 1.16457C10.468 1.05699 10.6286 1 10.7926 1C10.9565 1 11.1172 1.05699 11.2566 1.16457C11.396 1.27215 11.5086 1.42608 11.5819 1.60909L14.098 7.93272L19.7229 8.95282C19.8852 8.98089 20.0378 9.06533 20.1635 9.19649C20.2891 9.32765 20.3826 9.50025 20.4334 9.69459C20.4842 9.88893 20.4902 10.0972 20.4507 10.2956C20.4112 10.4939 20.3278 10.6745 20.2101 10.8165L16.1405 15.7357L17.1012 22.6854C17.2242 23.5774 16.4688 24.2567 15.8229 23.8361L10.7926 20.5534L5.7613 23.8361C5.11629 24.2579 4.36087 23.5774 4.48387 22.6842L5.4446 15.7345L1.37505 10.8153C1.25785 10.6732 1.17496 10.4928 1.1358 10.2948C1.09664 10.0968 1.10278 9.88899 1.15352 9.6951C1.20427 9.50121 1.29758 9.32897 1.42286 9.19797C1.54813 9.06696 1.70034 8.98245 1.86219 8.95402L7.48713 7.93272Z" fill="#FFD600" stroke="#FFD600" stroke-width="1.5" stroke-linecap="round" stroke-linejoin="round"/>
<path d="M38.618 7.93272L41.1341 1.60909C41.2073 1.42608 41.32 1.27215 41.4594 1.16457C41.5988 1.05699 41.7595 1 41.9234 1C42.0873 1 42.248 1.05699 42.3874 1.16457C42.5268 1.27215 42.6395 1.42608 42.7127 1.60909L45.2288 7.93272L50.8538 8.95282C51.016 8.98089 51.1687 9.06533 51.2943 9.19649C51.42 9.32765 51.5135 9.50025 51.5643 9.69459C51.6151 9.88893 51.6211 10.0972 51.5816 10.2956C51.5421 10.4939 51.4587 10.6745 51.3409 10.8165L47.2714 15.7357L48.2321 22.6854C48.3551 23.5774 47.5997 24.2567 46.9537 23.8361L41.9234 20.5534L36.8922 23.8361C36.2471 24.2579 35.4917 23.5774 35.6147 22.6842L36.5755 15.7345L32.5059 10.8153C32.3887 10.6732 32.3058 10.4928 32.2667 10.2948C32.2275 10.0968 32.2336 9.88899 32.2844 9.6951C32.3351 9.50121 32.4284 9.32897 32.5537 9.19797C32.679 9.06696 32.8312 8.98245 32.9931 8.95402L38.618 7.93272Z" fill="#FFD600" stroke="#FFD600" stroke-width="1.5" stroke-linecap="round" stroke-linejoin="round"/>
<path d="M69.7474 7.93272L72.2635 1.60909C72.3367 1.42608 72.4494 1.27215 72.5888 1.16457C72.7282 1.05699 72.8889 1 73.0528 1C73.2167 1 73.3774 1.05699 73.5168 1.16457C73.6562 1.27215 73.7689 1.42608 73.8421 1.60909L76.3582 7.93272L81.9832 8.95282C82.1454 8.98089 82.2981 9.06533 82.4237 9.19649C82.5493 9.32765 82.6429 9.50025 82.6937 9.69459C82.7445 9.88893 82.7505 10.0972 82.711 10.2956C82.6715 10.4939 82.5881 10.6745 82.4703 10.8165L78.4008 15.7357L79.3615 22.6854C79.4845 23.5774 78.7291 24.2567 78.0831 23.8361L73.0528 20.5534L68.0216 23.8361C67.3765 24.2579 66.6211 23.5774 66.7441 22.6842L67.7049 15.7345L63.6353 10.8153C63.5181 10.6732 63.4352 10.4928 63.396 10.2948C63.3569 10.0968 63.363 9.88899 63.4138 9.6951C63.4645 9.50121 63.5578 9.32897 63.6831 9.19797C63.8084 9.06696 63.9606 8.98245 64.1224 8.95402L69.7474 7.93272Z" fill="#FFD600" stroke="#FFD600" stroke-width="1.5" stroke-linecap="round" stroke-linejoin="round"/>
<path d="M100.879 7.93272L103.395 1.60909C103.468 1.42608 103.581 1.27215 103.72 1.16457C103.86 1.05699 104.02 1 104.184 1C104.348 1 104.509 1.05699 104.648 1.16457C104.788 1.27215 104.9 1.42608 104.973 1.60909L107.49 7.93272L113.115 8.95282C113.277 8.98089 113.429 9.06533 113.555 9.19649C113.681 9.32765 113.774 9.50025 113.825 9.69459C113.876 9.88893 113.882 10.0972 113.842 10.2956C113.803 10.4939 113.719 10.6745 113.602 10.8165L109.532 15.7357L110.493 22.6854C110.616 23.5774 109.86 24.2567 109.214 23.8361L104.184 20.5534L99.1529 23.8361C98.5079 24.2579 97.7525 23.5774 97.8755 22.6842L98.8362 15.7345L94.7666 10.8153C94.6494 10.6732 94.5666 10.4928 94.5274 10.2948C94.4882 10.0968 94.4944 9.88899 94.5451 9.6951C94.5959 9.50121 94.6892 9.32897 94.8145 9.19797C94.9397 9.06696 95.0919 8.98245 95.2538 8.95402L100.879 7.93272Z" fill="#FFD600" stroke="#FFD600" stroke-width="1.5" stroke-linecap="round" stroke-linejoin="round"/>
<path d="M132.011 7.93272L134.527 1.60909C134.6 1.42608 134.713 1.27215 134.852 1.16457C134.991 1.05699 135.152 1 135.316 1C135.48 1 135.641 1.05699 135.78 1.16457C135.919 1.27215 136.032 1.42608 136.105 1.60909L138.621 7.93272L144.246 8.95282C144.409 8.98089 144.561 9.06533 144.687 9.19649C144.813 9.32765 144.906 9.50025 144.957 9.69459C145.008 9.88893 145.014 10.0972 144.974 10.2956C144.935 10.4939 144.851 10.6745 144.734 10.8165L140.664 15.7357L141.625 22.6854C141.748 23.5774 140.992 24.2567 140.346 23.8361L135.316 20.5534L130.285 23.8361C129.64 24.2579 128.884 23.5774 129.007 22.6842L129.968 15.7345L125.898 10.8153C125.781 10.6732 125.698 10.4928 125.659 10.2948C125.62 10.0968 125.626 9.88899 125.677 9.6951C125.728 9.50121 125.821 9.32897 125.946 9.19797C126.072 9.06696 126.224 8.98245 126.386 8.95402L132.011 7.93272Z" fill="#FFD600" stroke="#FFD600" stroke-width="1.5" stroke-linecap="round" stroke-linejoin="round"/>
</svg>
