<svg width="87" height="86" viewBox="0 0 87 86" fill="none" xmlns="http://www.w3.org/2000/svg">
<rect opacity="0.1" x="0.865936" y="0.351288" width="85.2974" height="85.2974" rx="15.1054" fill="#4A3AFF" stroke="#103DA0" stroke-width="0.702576"/>
<path d="M64 41.75C64 30.0125 54.4875 20.5 42.75 20.5C31.0125 20.5 21.5 30.0125 21.5 41.75C21.5 53.4875 31.0125 63 42.75 63" stroke="#103DA0" stroke-width="4" stroke-linecap="round" stroke-linejoin="round"/>
<path d="M62.1748 61.1748L66.4998 65.4998" stroke="#103DA0" stroke-width="4" stroke-linecap="round" stroke-linejoin="round"/>
<path d="M62.1694 52.3306C64.6102 54.7714 64.6102 58.7286 62.1694 61.1694C59.7286 63.6102 55.7714 63.6102 53.3306 61.1694C50.8898 58.7286 50.8898 54.7714 53.3306 52.3306C55.7714 49.8898 59.7286 49.8898 62.1694 52.3306" stroke="#103DA0" stroke-width="4" stroke-linecap="round" stroke-linejoin="round"/>
<path d="M23.7173 51.2027H23.8623C30.9448 51.2027 35.6673 50.7977 35.6673 44.1202C35.6673 37.0377 42.7498 37.0377 42.7498 32.3152C42.7498 27.0352 33.3048 27.5927 33.3048 22.8702V22.7002" stroke="#103DA0" stroke-width="4" stroke-linecap="round" stroke-linejoin="round"/>
<path d="M63.9998 41.7503H56.3298C51.0673 41.7503 48.2748 35.5328 51.7698 31.5978L56.8473 25.8828" stroke="#103DA0" stroke-width="4" stroke-linecap="round" stroke-linejoin="round"/>
</svg>
