<svg width="86" height="86" viewBox="0 0 86 86" fill="none" xmlns="http://www.w3.org/2000/svg">
<rect opacity="0.1" x="-0.000976562" width="86" height="86" rx="15.4567" fill="#FFD600"/>
<path fill-rule="evenodd" clip-rule="evenodd" d="M63 45.5522C63 54.989 51.3879 61.9992 45.8503 64.8138C44.0636 65.7272 41.9474 65.7291 40.1591 64.8188C34.6253 62.0068 23 54.9795 23 45.5522V31.9234C23.0184 30.6463 23.9856 29.5831 25.2553 29.4442C30.56 29.0411 35.6459 27.1603 39.9365 24.0148C41.7547 22.6617 44.2452 22.6617 46.0634 24.0148C50.354 27.1603 55.4399 29.0411 60.7447 29.4442C62.0144 29.5831 62.9816 30.6463 63 31.9234V45.5522Z" stroke="#FFD600" stroke-width="4" stroke-linecap="round" stroke-linejoin="round"/>
<path d="M47 41.75L42.0027 46.75L39 43.75" stroke="#FFD600" stroke-width="4" stroke-linecap="round" stroke-linejoin="round"/>
</svg>
