<svg width="87" height="84" viewBox="0 0 87 84" fill="none" xmlns="http://www.w3.org/2000/svg">
<rect opacity="0.1" x="0.665741" y="0.762421" width="85.2974" height="82.4963" rx="15.1054" fill="#103DA0" stroke="#103DA0" stroke-width="0.702576"/>
<path d="M55.8145 23.8284C48.272 18.7759 38.357 18.7759 30.8145 23.8284" stroke="#103DA0" stroke-width="4" stroke-linecap="round" stroke-linejoin="round"/>
<path d="M53.2646 62.711C61.4096 58.706 66.3671 50.1185 65.7646 41.061" stroke="#103DA0" stroke-width="4" stroke-linecap="round" stroke-linejoin="round"/>
<path d="M33.3648 62.711C25.2198 58.706 20.2623 50.1185 20.8648 41.061" stroke="#103DA0" stroke-width="4" stroke-linecap="round" stroke-linejoin="round"/>
<path d="M65.4515 28.632C66.9159 30.0965 66.9159 32.4709 65.4515 33.9353C63.987 35.3998 61.6126 35.3998 60.1482 33.9353C58.6837 32.4709 58.6837 30.0965 60.1482 28.632C61.6126 27.1676 63.987 27.1676 65.4515 28.632" stroke="#103DA0" stroke-width="4" stroke-linecap="round" stroke-linejoin="round"/>
<path d="M26.4964 28.632C27.9608 30.0965 27.9608 32.4709 26.4964 33.9353C25.0319 35.3998 22.6576 35.3998 21.1931 33.9353C19.7286 32.4709 19.7286 30.0965 21.1931 28.632C22.6575 27.1676 25.0319 27.1676 26.4964 28.632" stroke="#103DA0" stroke-width="4" stroke-linecap="round" stroke-linejoin="round"/>
<path d="M45.9739 62.382C47.4384 63.8465 47.4384 66.2209 45.9739 67.6853C44.5094 69.1498 42.1351 69.1498 40.6706 67.6853C39.2061 66.2209 39.2061 63.8465 40.6706 62.382C42.1351 60.9176 44.5094 60.9176 45.9739 62.382" stroke="#103DA0" stroke-width="4" stroke-linecap="round" stroke-linejoin="round"/>
<path d="M49.5016 36.3463C52.9191 39.7638 52.9191 45.3038 49.5016 48.7213C46.0841 52.1388 40.5441 52.1388 37.1266 48.7213C33.7091 45.3038 33.7091 39.7638 37.1266 36.3463C40.5441 32.9288 46.0841 32.9288 49.5016 36.3463" stroke="#103DA0" stroke-width="4" stroke-linecap="round" stroke-linejoin="round"/>
</svg>
