<svg width="53" height="32" viewBox="0 0 53 32" fill="none" xmlns="http://www.w3.org/2000/svg">
<path opacity="0.35" d="M47.661 0.118164H5.30868C2.38373 0.118164 0.0146484 2.48724 0.0146484 5.4122V26.5883C0.0146484 29.5133 2.38373 31.8824 5.30868 31.8824H47.661C50.5859 31.8824 52.955 29.5133 52.955 26.5883V5.4122C52.955 2.48724 50.5859 0.118164 47.661 0.118164Z" fill="#FF6262"/>
<path d="M26.4843 26.5882C31.601 26.5882 35.7488 21.8478 35.7488 16.0002C35.7488 10.1525 31.601 5.41211 26.4843 5.41211C21.3676 5.41211 17.2197 10.1525 17.2197 16.0002C17.2197 21.8478 21.3676 26.5882 26.4843 26.5882Z" fill="#FF6262"/>
<path d="M45.0132 18.6476C46.4751 18.6476 47.6602 17.4624 47.6602 16.0005C47.6602 14.5386 46.4751 13.3535 45.0132 13.3535C43.5513 13.3535 42.3662 14.5386 42.3662 16.0005C42.3662 17.4624 43.5513 18.6476 45.0132 18.6476Z" fill="#FF6262"/>
<path d="M7.95463 18.6476C9.41654 18.6476 10.6017 17.4624 10.6017 16.0005C10.6017 14.5386 9.41654 13.3535 7.95463 13.3535C6.49273 13.3535 5.30762 14.5386 5.30762 16.0005C5.30762 17.4624 6.49273 18.6476 7.95463 18.6476Z" fill="#FF6262"/>
</svg>
