<svg width="86" height="86" viewBox="0 0 86 86" fill="none" xmlns="http://www.w3.org/2000/svg">
<rect opacity="0.1" width="86" height="86" rx="20" fill="#FF6262"/>
<g clip-path="url(#clip0_2711_6006)">
<path d="M36.75 40C39.5114 40 41.75 37.7614 41.75 35C41.75 32.2386 39.5114 30 36.75 30C33.9886 30 31.75 32.2386 31.75 35C31.75 37.7614 33.9886 40 36.75 40Z" stroke="#FF6262" stroke-width="4" stroke-linecap="round" stroke-linejoin="round"/>
<path d="M36.75 30C38.0761 30 39.3479 30.5268 40.2855 31.4645C41.2232 32.4021 41.75 33.6739 41.75 35C41.75 36.3261 41.2232 37.5979 40.2855 38.5355C39.3479 39.4732 38.0761 40 36.75 40" stroke="#FF6262" stroke-width="4" stroke-linecap="round" stroke-linejoin="round"/>
<path d="M48 30C49.3261 30 50.5979 30.5268 51.5355 31.4645C52.4732 32.4021 53 33.6739 53 35C53 36.3261 52.4732 37.5979 51.5355 38.5355C50.5979 39.4732 49.3261 40 48 40" stroke="#323232" stroke-width="1.5" stroke-linecap="round" stroke-linejoin="round"/>
<path d="M48 30C49.3261 30 50.5979 30.5268 51.5355 31.4645C52.4732 32.4021 53 33.6739 53 35C53 36.3261 52.4732 37.5979 51.5355 38.5355C50.5979 39.4732 49.3261 40 48 40" stroke="#FF6262" stroke-width="4" stroke-linecap="round" stroke-linejoin="round"/>
<path d="M45.5 51.25C45.5 49.9239 44.9732 48.6521 44.0355 47.7145C43.0979 46.7768 41.8261 46.25 40.5 46.25H33C31.6739 46.25 30.4021 46.7768 29.4645 47.7145C28.5268 48.6521 28 49.9239 28 51.25" stroke="#FF6262" stroke-width="4" stroke-linecap="round" stroke-linejoin="round"/>
<path d="M58 51.25C58 49.9239 57.4732 48.6521 56.5355 47.7145C55.5979 46.7768 54.3261 46.25 53 46.25H50.5" stroke="#FF6262" stroke-width="4" stroke-linecap="round" stroke-linejoin="round"/>
<path d="M44.2675 60H58C59.9891 60 61.8968 59.2098 63.3033 57.8033C64.7098 56.3968 65.5 54.4891 65.5 52.5V30C65.5 28.0109 64.7098 26.1032 63.3033 24.6967C61.8968 23.2902 59.9891 22.5 58 22.5H28C26.0109 22.5 24.1032 23.2902 22.6967 24.6967C21.2902 26.1032 20.5 28.0109 20.5 30V52.5C20.5 54.4891 21.2902 56.3968 22.6967 57.8033C24.1032 59.2098 26.0109 60 28 60H33.0175V66.1072C33.0175 66.3691 33.0915 66.6257 33.2309 66.8474C33.3703 67.069 33.5695 67.2468 33.8055 67.3603C34.0415 67.4737 34.3048 67.5182 34.565 67.4886C34.8252 67.4589 35.0717 67.3564 35.2762 67.1929L44.2675 60Z" stroke="#FF6262" stroke-width="4" stroke-linecap="round" stroke-linejoin="round"/>
</g>
<defs>
<clipPath id="clip0_2711_6006">
<rect width="60" height="60" fill="white" transform="translate(13 15)"/>
</clipPath>
</defs>
</svg>
