<svg width="86" height="86" viewBox="0 0 86 86" fill="none" xmlns="http://www.w3.org/2000/svg">
<rect opacity="0.1" width="86" height="86" rx="20" fill="#FF6262"/>
<path d="M44.573 44.25C50.5536 44.25 55.4018 39.493 55.4018 33.625C55.4018 27.757 50.5536 23 44.573 23C38.5924 23 33.7441 27.757 33.7441 33.625C33.7441 39.493 38.5924 44.25 44.573 44.25Z" stroke="#FF6262" stroke-width="4" stroke-linecap="round" stroke-linejoin="round"/>
<path d="M24.1895 63C24.1895 56.775 29.3109 51.75 35.6553 51.75H42.229" stroke="#FF6262" stroke-width="4" stroke-linecap="round" stroke-linejoin="round"/>
<path d="M49.6689 65.4998H55.4783L64.2178 56.9248C65.2115 55.9498 65.2115 54.3748 64.2178 53.3998L62.0266 51.2498C61.0329 50.2748 59.4276 50.2748 58.4339 51.2498L49.6944 59.8248V65.5248L49.6689 65.4998Z" stroke="#FF6262" stroke-width="4" stroke-linecap="round" stroke-linejoin="round"/>
</svg>
