<svg width="60" height="60" viewBox="0 0 60 60" fill="none" xmlns="http://www.w3.org/2000/svg">
<rect opacity="0.1" width="60" height="60" rx="14" fill="#FF6262"/>
<g clip-path="url(#clip0_2132_26882)">
<path d="M25.6397 27.9064C27.5663 27.9064 29.1281 26.3446 29.1281 24.4181C29.1281 22.4915 27.5663 20.9297 25.6397 20.9297C23.7132 20.9297 22.1514 22.4915 22.1514 24.4181C22.1514 26.3446 23.7132 27.9064 25.6397 27.9064Z" stroke="#FF6262" stroke-width="3" stroke-linecap="round" stroke-linejoin="round"/>
<path d="M25.6396 20.9297C26.5648 20.9297 27.4521 21.2972 28.1063 21.9514C28.7605 22.6056 29.128 23.4929 29.128 24.4181C29.128 25.3432 28.7605 26.2305 28.1063 26.8847C27.4521 27.5389 26.5648 27.9064 25.6396 27.9064" stroke="#FF6262" stroke-width="3" stroke-linecap="round" stroke-linejoin="round"/>
<path d="M33.4893 20.9297C34.4144 20.9297 35.3017 21.2972 35.9559 21.9514C36.6101 22.6056 36.9776 23.4929 36.9776 24.4181C36.9776 25.3432 36.6101 26.2305 35.9559 26.8847C35.3017 27.5389 34.4144 27.9064 33.4893 27.9064" stroke="#323232" stroke-width="1.5" stroke-linecap="round" stroke-linejoin="round"/>
<path d="M33.4893 20.9297C34.4144 20.9297 35.3017 21.2972 35.9559 21.9514C36.6101 22.6056 36.9776 23.4929 36.9776 24.4181C36.9776 25.3432 36.6101 26.2305 35.9559 26.8847C35.3017 27.5389 34.4144 27.9064 33.4893 27.9064" stroke="#FF6262" stroke-width="3" stroke-linecap="round" stroke-linejoin="round"/>
<path d="M31.7445 35.756C31.7445 34.8308 31.3769 33.9435 30.7227 33.2893C30.0685 32.6351 29.1813 32.2676 28.2561 32.2676H23.0235C22.0984 32.2676 21.2111 32.6351 20.5569 33.2893C19.9027 33.9435 19.5352 34.8308 19.5352 35.756" stroke="#FF6262" stroke-width="3" stroke-linecap="round" stroke-linejoin="round"/>
<path d="M40.466 35.756C40.466 34.8308 40.0984 33.9435 39.4442 33.2893C38.79 32.6351 37.9028 32.2676 36.9776 32.2676H35.2334" stroke="#FF6262" stroke-width="3" stroke-linecap="round" stroke-linejoin="round"/>
<path d="M30.8847 41.8601H40.4655C41.8533 41.8601 43.1842 41.3088 44.1655 40.3275C45.1468 39.3462 45.6981 38.0153 45.6981 36.6275V20.9298C45.6981 19.5421 45.1468 18.2111 44.1655 17.2298C43.1842 16.2486 41.8533 15.6973 40.4655 15.6973H19.5353C18.1475 15.6973 16.8166 16.2486 15.8353 17.2298C14.854 18.2111 14.3027 19.5421 14.3027 20.9298V36.6275C14.3027 38.0153 14.854 39.3462 15.8353 40.3275C16.8166 41.3088 18.1475 41.8601 19.5353 41.8601H23.0359V46.1209C23.0359 46.3036 23.0875 46.4826 23.1847 46.6373C23.282 46.7919 23.421 46.916 23.5856 46.9951C23.7503 47.0743 23.934 47.1053 24.1155 47.0846C24.2971 47.064 24.4691 46.9925 24.6117 46.8783L30.8847 41.8601Z" stroke="#FF6262" stroke-width="3" stroke-linecap="round" stroke-linejoin="round"/>
</g>
<defs>
<clipPath id="clip0_2132_26882">
<rect width="41.8605" height="41.8605" fill="white" transform="translate(9.07031 10.4648)"/>
</clipPath>
</defs>
</svg>
