<svg width="93" height="85" viewBox="0 0 93 85" fill="none" xmlns="http://www.w3.org/2000/svg">
<rect opacity="0.1" width="92.0976" height="84.6822" rx="15.4567" fill="#FF6262"/>
<path d="M55.3014 33.823C54.8891 30.4857 53.3041 27.2469 50.5198 24.6849C43.9846 18.6773 33.3907 18.6773 26.8555 24.6849C20.3203 30.6925 20.3203 40.4311 26.8555 46.4387C33.3907 52.4462 43.9846 52.4462 50.5198 46.4387C52.4501 44.6642 53.7941 42.5624 54.5838 40.3302" stroke="#FF6262" stroke-width="4" stroke-linecap="round" stroke-linejoin="round"/>
<path d="M36.7959 50.8391C37.2082 54.1764 38.7931 57.4152 41.5775 59.9772C48.1127 65.9848 58.7066 65.9848 65.2418 59.9772C71.7769 53.9697 71.7769 44.231 65.2418 38.2235C58.7066 32.2159 48.1127 32.2159 41.5775 38.2235C39.6472 39.9979 38.3032 42.0997 37.5134 44.3319" stroke="#FF6262" stroke-width="4" stroke-linecap="round" stroke-linejoin="round"/>
</svg>
