<svg width="60" height="60" viewBox="0 0 60 60" fill="none" xmlns="http://www.w3.org/2000/svg">
<path opacity="0.1" d="M0 14C0 6.26801 6.26801 0 14 0H46C53.732 0 60 6.26801 60 14V46C60 53.732 53.732 60 46 60H14C6.26801 60 0 53.732 0 46V14Z" fill="#FF6262"/>
<path d="M31.9894 30.8256C36.0939 30.8256 39.4212 27.5068 39.4212 23.4128C39.4212 19.3188 36.0939 16 31.9894 16C27.8849 16 24.5576 19.3188 24.5576 23.4128C24.5576 27.5068 27.8849 30.8256 31.9894 30.8256Z" stroke="#FF6262" stroke-width="3" stroke-linecap="round" stroke-linejoin="round"/>
<path d="M18 43.9065C18 39.5634 21.5148 36.0576 25.869 36.0576H30.3805" stroke="#FF6262" stroke-width="3" stroke-linecap="round" stroke-linejoin="round"/>
<path d="M35.4951 45.659C35.4919 45.6558 35.4941 45.6503 35.4987 45.6503H38.8912C39.2639 45.6503 39.6215 45.5025 39.8854 45.2392L45.4712 39.6677C46.1531 38.9875 46.1531 37.8886 45.4712 37.2084L43.9673 35.7084C43.2853 35.0282 42.1837 35.0282 41.5017 35.7084L35.9174 41.2784C35.6526 41.5425 35.5038 41.9012 35.5038 42.2752V45.6554C35.5038 45.6599 35.4983 45.6622 35.4951 45.659V45.659Z" stroke="#FF6262" stroke-width="3" stroke-linecap="round" stroke-linejoin="round"/>
</svg>
