<svg width="92" height="85" viewBox="0 0 92 85" fill="none" xmlns="http://www.w3.org/2000/svg">
<rect opacity="0.1" y="0.489746" width="91.9786" height="83.8354" rx="15.4567" fill="#FFD600"/>
<path fill-rule="evenodd" clip-rule="evenodd" d="M49.6447 27.1094H46.5244V24.1696C46.5244 21.386 48.9175 19.1313 51.872 19.1313H54.9923V22.0712C54.9923 24.8523 52.5966 27.1094 49.6447 27.1094V27.1094Z" stroke="#FFD600" stroke-width="4" stroke-linecap="round" stroke-linejoin="round"/>
<path d="M46.5242 44.3225C40.7568 44.3225 36.083 39.9191 36.083 34.4854" stroke="#FFD600" stroke-width="4" stroke-linecap="round" stroke-linejoin="round"/>
<path d="M36.083 34.485C36.083 30.1924 38.1712 27.1064 42.3477 27.1064" stroke="#FFD600" stroke-width="4" stroke-linecap="round" stroke-linejoin="round"/>
<path d="M46.5244 44.3225C52.2918 44.3225 56.9656 39.9191 56.9656 34.4854" stroke="#FFD600" stroke-width="4" stroke-linecap="round" stroke-linejoin="round"/>
<path d="M56.9649 34.485C56.9649 30.1924 54.8767 27.1064 50.7002 27.1064" stroke="#FFD600" stroke-width="4" stroke-linecap="round" stroke-linejoin="round"/>
<path d="M50.7006 27.1092C48.6124 27.1092 47.4279 27.739 46.5241 27.739C45.6204 27.739 44.4359 27.1092 42.3477 27.1092" stroke="#FFD600" stroke-width="4" stroke-linecap="round" stroke-linejoin="round"/>
<path d="M66.9121 44.3223H31.4843C28.5298 44.3223 26.1367 46.5769 26.1367 49.3605V49.3605C26.1367 52.1442 28.5298 54.3988 31.4843 54.3988H66.9121" stroke="#FFD600" stroke-width="4" stroke-linecap="round" stroke-linejoin="round"/>
<path d="M65.5615 44.3223V54.3988" stroke="#FFD600" stroke-width="4" stroke-linecap="round" stroke-linejoin="round"/>
<path d="M61.5645 54.3989H26.1367C23.1821 54.3989 20.7891 56.6535 20.7891 59.4372V59.4372C20.7891 62.2208 23.1821 64.4754 26.1367 64.4754H61.5645" stroke="#FFD600" stroke-width="4" stroke-linecap="round" stroke-linejoin="round"/>
<path d="M60.2139 54.3989V64.4754" stroke="#FFD600" stroke-width="4" stroke-linecap="round" stroke-linejoin="round"/>
</svg>
