<svg width="79" height="40" viewBox="0 0 79 40" fill="none" xmlns="http://www.w3.org/2000/svg">
<g clip-path="url(#clip0_2125_5355)">
<path fill-rule="evenodd" clip-rule="evenodd" d="M68.2817 17.92C67.8582 17.9038 67.4347 17.9686 67.0437 18.0981C66.7343 18.2114 66.4573 18.4056 66.2619 18.6646C66.0664 18.9236 65.9524 19.2798 65.8709 19.7492C65.7895 20.2996 65.7569 20.8662 65.7732 21.4327C65.7732 22.6954 65.5452 23.9418 65.1054 25.1235C64.6493 26.2891 63.9163 27.3251 62.9879 28.1507C62.0268 29.0086 60.7889 29.6885 59.274 30.1903C57.7592 30.6921 55.9512 30.935 53.8662 30.935V21.886C54.3223 21.9022 54.7621 21.8374 55.2019 21.7079C55.5114 21.6108 55.8046 21.4165 56.0163 21.1575C56.2281 20.8823 56.3584 20.5424 56.4072 20.2025C56.4887 19.7168 56.5213 19.2312 56.505 18.7294C56.5375 16.2203 57.58 13.8245 59.4206 12.1086C60.4142 11.1697 61.6359 10.3765 63.1182 9.79372C64.6004 9.21096 66.327 8.88721 68.3305 8.88721L68.2817 17.92Z" fill="#103DA0"/>
<path fill-rule="evenodd" clip-rule="evenodd" d="M52.1078 4.2412C52.1078 5.43909 51.7006 6.44274 50.8862 7.23594C50.0718 8.02914 49.0781 8.45002 47.8728 8.45002C46.6674 8.45002 45.6249 8.04533 44.8105 7.23594C43.9961 6.42655 43.5889 5.42291 43.5889 4.2412C43.5889 3.12424 44.0287 2.03966 44.8268 1.24646C45.2177 0.857952 45.6738 0.534197 46.1788 0.323756C46.7163 0.113314 47.2864 0 47.8565 0C49.0619 0 50.0718 0.404694 50.8699 1.23027C51.7006 2.03966 52.1078 3.0433 52.1078 4.2412Z" fill="#FFD600"/>
<path fill-rule="evenodd" clip-rule="evenodd" d="M52.3685 30.9025C47.2376 30.9025 43.084 26.7746 43.084 21.6754V9.55078H52.3685V30.9025Z" fill="#103DA0"/>
<path d="M70.0898 9.37267V8.87085H73.7222V9.37267H72.2074V13.3711H71.6047V9.37267H70.0898Z" fill="#103DA0"/>
<path d="M75.0583 8.87085L76.4917 12.6588L77.9251 8.87085H78.7558V13.3872H78.1857V9.63168H78.1694L76.7523 13.3872H76.231L74.8139 9.63168H74.7976V13.3872H74.2275V8.87085H75.0583Z" fill="#103DA0"/>
<path d="M26.4688 28.8953C31.1287 28.8953 34.9063 25.1411 34.9063 20.51C34.9063 15.879 31.1287 12.1248 26.4688 12.1248C21.8089 12.1248 18.0312 15.879 18.0312 20.51C18.0312 25.1411 21.8089 28.8953 26.4688 28.8953Z" fill="#FF6262"/>
<path d="M16.5819 20.51C16.5819 17.7257 17.7546 15.2166 19.6278 13.436C17.5918 10.9916 14.5132 9.42139 11.0763 9.42139C4.95175 9.42139 0 14.3425 0 20.4291C0 20.4615 0 20.4938 0 20.5262V30.7731C0 35.856 4.15361 39.9839 9.26825 39.9839V31.2911C9.85464 31.3882 10.4573 31.4368 11.0763 31.4368C14.4806 31.4368 17.5266 29.9151 19.5464 27.5193C17.7221 25.7387 16.5819 23.2619 16.5819 20.51ZM11.0763 22.2745C10.0664 22.2745 9.23567 21.4489 9.23567 20.4453C9.23567 19.4416 10.0664 18.616 11.0763 18.616C12.0862 18.616 12.9169 19.4416 12.9169 20.4453C12.9169 21.4489 12.0862 22.2745 11.0763 22.2745Z" fill="#103DA0"/>
<path fill-rule="evenodd" clip-rule="evenodd" d="M32.3496 0V12.6265C34.7766 14.4233 36.3403 17.2885 36.3403 20.5099C36.3403 23.7313 34.7766 26.6127 32.3496 28.3934V30.9025H41.6341V0H32.3496Z" fill="#103DA0"/>
</g>
<defs>
<clipPath id="clip0_2125_5355">
<rect width="79" height="40" fill="white"/>
</clipPath>
</defs>
</svg>
