<svg width="116" height="59" viewBox="0 0 116 59" fill="none" xmlns="http://www.w3.org/2000/svg">
<g clip-path="url(#clip0_2711_4136)">
<path fill-rule="evenodd" clip-rule="evenodd" d="M100.263 26.4317C99.6409 26.4079 99.019 26.5034 98.445 26.6944C97.9905 26.8615 97.5839 27.1481 97.2969 27.5301C97.0099 27.9121 96.8425 28.4374 96.7229 29.1298C96.6033 29.9417 96.5555 30.7774 96.5794 31.6131C96.5794 33.4755 96.2446 35.314 95.5988 37.057C94.9291 38.7761 93.8528 40.3043 92.4895 41.522C91.0784 42.7875 89.2606 43.7903 87.0363 44.5305C84.812 45.2707 82.1571 45.6288 79.0957 45.6288V32.2816C79.7654 32.3055 80.4112 32.21 81.0569 32.019C81.5114 31.8757 81.9419 31.5892 82.2528 31.2071C82.5637 30.8012 82.7551 30.2998 82.8268 29.7984C82.9464 29.0821 82.9943 28.3658 82.9703 27.6256C83.0182 23.9247 84.5489 20.3909 87.2516 17.8599C88.7105 16.4751 90.5044 15.3051 92.6809 14.4455C94.8573 13.5859 97.3926 13.1084 100.334 13.1084L100.263 26.4317Z" fill="#103DA0"/>
<path fill-rule="evenodd" clip-rule="evenodd" d="M76.5118 6.25577C76.5118 8.02266 75.9139 9.50304 74.718 10.673C73.5221 11.843 72.0631 12.4638 70.2932 12.4638C68.5233 12.4638 66.9926 11.8669 65.7967 10.673C64.6009 9.47916 64.0029 7.99879 64.0029 6.25577C64.0029 4.60826 64.6487 3.0085 65.8207 1.83853C66.3947 1.26548 67.0644 0.78794 67.8058 0.477539C68.5951 0.167139 69.4322 0 70.2693 0C72.0392 0 73.5221 0.596924 74.6941 1.81465C75.9139 3.0085 76.5118 4.48887 76.5118 6.25577Z" fill="#FFD600"/>
<path fill-rule="evenodd" clip-rule="evenodd" d="M76.8947 45.5811C69.3607 45.5811 63.2617 39.4925 63.2617 31.9713V14.0874H76.8947V45.5811Z" fill="#103DA0"/>
<path d="M102.917 13.8247V13.0845H108.251V13.8247H106.026V19.7223H105.141V13.8247H102.917Z" fill="#103DA0"/>
<path d="M110.212 13.0845L112.317 18.6717L114.421 13.0845H115.641V19.7461H114.804V14.2067H114.78L112.699 19.7461H111.934L109.853 14.2067H109.829V19.7461H108.992V13.0845H110.212Z" fill="#103DA0"/>
<path d="M38.8658 42.6203C45.7083 42.6203 51.2551 37.0829 51.2551 30.2521C51.2551 23.4213 45.7083 17.8838 38.8658 17.8838C32.0234 17.8838 26.4766 23.4213 26.4766 30.2521C26.4766 37.0829 32.0234 42.6203 38.8658 42.6203Z" fill="#FF6262"/>
<path d="M24.348 30.2522C24.348 26.1454 26.0701 22.4444 28.8206 19.818C25.8309 16.2126 21.3105 13.8965 16.2639 13.8965C7.27093 13.8965 0 21.1551 0 30.1328C0 30.1806 0 30.2283 0 30.2761V45.3902C0 52.8876 6.09897 58.9762 13.6091 58.9762V46.1543C14.4701 46.2975 15.3551 46.3692 16.2639 46.3692C21.2627 46.3692 25.7353 44.1247 28.701 40.5909C26.0223 37.9645 24.348 34.3113 24.348 30.2522ZM16.2639 32.8548C14.781 32.8548 13.5612 31.6371 13.5612 30.1567C13.5612 28.6763 14.781 27.4586 16.2639 27.4586C17.7468 27.4586 18.9666 28.6763 18.9666 30.1567C18.9666 31.6371 17.7468 32.8548 16.2639 32.8548Z" fill="#103DA0"/>
<path fill-rule="evenodd" clip-rule="evenodd" d="M47.5 0V18.624C51.0637 21.2744 53.3598 25.5006 53.3598 30.2521C53.3598 35.0036 51.0637 39.2537 47.5 41.8802V45.5811H61.133V0H47.5Z" fill="#103DA0"/>
</g>
<defs>
<clipPath id="clip0_2711_4136">
<rect width="116" height="59" fill="white"/>
</clipPath>
</defs>
</svg>
