<svg width="79" height="40" viewBox="0 0 79 40" fill="none" xmlns="http://www.w3.org/2000/svg">
<g clip-path="url(#clip0_2134_28500)">
<path fill-rule="evenodd" clip-rule="evenodd" d="M68.2822 17.9195C67.8587 17.9033 67.4352 17.9681 67.0442 18.0976C66.7347 18.2109 66.4578 18.4051 66.2624 18.6641C66.0669 18.9231 65.9529 19.2793 65.8714 19.7487C65.79 20.2991 65.7574 20.8657 65.7737 21.4322C65.7737 22.6949 65.5457 23.9414 65.1059 25.1231C64.6498 26.2886 63.9168 27.3246 62.9883 28.1502C62.0273 29.0081 60.7894 29.688 59.2745 30.1898C57.7597 30.6917 55.9516 30.9345 53.8667 30.9345V21.8855C54.3228 21.9017 54.7626 21.8369 55.2024 21.7074C55.5119 21.6103 55.805 21.4161 56.0168 21.1571C56.2286 20.8819 56.3589 20.5419 56.4077 20.202C56.4892 19.7163 56.5217 19.2307 56.5055 18.7289C56.538 16.2198 57.5805 13.824 59.4211 12.1081C60.4147 11.1692 61.6364 10.376 63.1187 9.79323C64.6009 9.21047 66.3275 8.88672 68.331 8.88672L68.2822 17.9195Z" fill="#103DA0"/>
<path fill-rule="evenodd" clip-rule="evenodd" d="M52.1073 4.2412C52.1073 5.43909 51.7001 6.44274 50.8857 7.23594C50.0713 8.02914 49.0777 8.45002 47.8723 8.45002C46.6669 8.45002 45.6245 8.04533 44.81 7.23594C43.9956 6.42655 43.5884 5.42291 43.5884 4.2412C43.5884 3.12424 44.0282 2.03966 44.8263 1.24646C45.2172 0.857952 45.6733 0.534197 46.1783 0.323756C46.7158 0.113314 47.2859 0 47.856 0C49.0614 0 50.0713 0.404694 50.8694 1.23027C51.7001 2.03966 52.1073 3.0433 52.1073 4.2412Z" fill="#FFD600"/>
<path fill-rule="evenodd" clip-rule="evenodd" d="M52.368 30.9025C47.2371 30.9025 43.0835 26.7746 43.0835 21.6754V9.55078H52.368V30.9025Z" fill="#103DA0"/>
<path d="M70.0903 9.37292V8.87109H73.7227V9.37292H72.2079V13.3713H71.6052V9.37292H70.0903Z" fill="#103DA0"/>
<path d="M75.0583 8.87109L76.4917 12.659L77.9251 8.87109H78.7558V13.3875H78.1857V9.63192H78.1694L76.7523 13.3875H76.231L74.8139 9.63192H74.7976V13.3875H74.2275V8.87109H75.0583Z" fill="#103DA0"/>
<path d="M26.4693 28.8955C31.1292 28.8955 34.9068 25.1413 34.9068 20.5103C34.9068 15.8792 31.1292 12.125 26.4693 12.125C21.8093 12.125 18.0317 15.8792 18.0317 20.5103C18.0317 25.1413 21.8093 28.8955 26.4693 28.8955Z" fill="#FF6262"/>
<path d="M16.5819 20.5095C16.5819 17.7252 17.7546 15.2161 19.6278 13.4355C17.5918 10.9911 14.5132 9.4209 11.0763 9.4209C4.95175 9.4209 0 14.342 0 20.4286C0 20.461 0 20.4933 0 20.5257V30.7726C0 35.8555 4.15361 39.9834 9.26825 39.9834V31.2906C9.85464 31.3877 10.4573 31.4363 11.0763 31.4363C14.4806 31.4363 17.5266 29.9146 19.5464 27.5188C17.7221 25.7382 16.5819 23.2614 16.5819 20.5095ZM11.0763 22.274C10.0664 22.274 9.23567 21.4484 9.23567 20.4448C9.23567 19.4411 10.0664 18.6156 11.0763 18.6156C12.0862 18.6156 12.9169 19.4411 12.9169 20.4448C12.9169 21.4484 12.0862 22.274 11.0763 22.274Z" fill="#103DA0"/>
<path fill-rule="evenodd" clip-rule="evenodd" d="M32.3491 0V12.6265C34.7761 14.4233 36.3398 17.2885 36.3398 20.5099C36.3398 23.7313 34.7761 26.6127 32.3491 28.3934V30.9025H41.6337V0H32.3491Z" fill="#103DA0"/>
</g>
<defs>
<clipPath id="clip0_2134_28500">
<rect width="79" height="40" fill="white"/>
</clipPath>
</defs>
</svg>
