<svg width="79" height="40" viewBox="0 0 79 40" fill="none" xmlns="http://www.w3.org/2000/svg">
<g clip-path="url(#clip0_2134_29001)">
<path fill-rule="evenodd" clip-rule="evenodd" d="M68.2817 17.9195C67.8582 17.9033 67.4347 17.9681 67.0437 18.0976C66.7343 18.2109 66.4573 18.4051 66.2619 18.6641C66.0664 18.9231 65.9524 19.2793 65.8709 19.7487C65.7895 20.2991 65.7569 20.8657 65.7732 21.4322C65.7732 22.6949 65.5452 23.9414 65.1054 25.1231C64.6493 26.2886 63.9163 27.3246 62.9879 28.1502C62.0268 29.0081 60.7889 29.688 59.274 30.1898C57.7592 30.6917 55.9512 30.9345 53.8662 30.9345V21.8855C54.3223 21.9017 54.7621 21.8369 55.2019 21.7074C55.5114 21.6103 55.8046 21.4161 56.0163 21.1571C56.2281 20.8819 56.3584 20.5419 56.4072 20.202C56.4887 19.7163 56.5213 19.2307 56.505 18.7289C56.5375 16.2198 57.58 13.824 59.4206 12.1081C60.4142 11.1692 61.6359 10.376 63.1182 9.79323C64.6004 9.21047 66.327 8.88672 68.3305 8.88672L68.2817 17.9195Z" fill="#103DA0"/>
<path fill-rule="evenodd" clip-rule="evenodd" d="M52.1078 4.2412C52.1078 5.43909 51.7006 6.44274 50.8862 7.23594C50.0718 8.02914 49.0781 8.45002 47.8728 8.45002C46.6674 8.45002 45.6249 8.04533 44.8105 7.23594C43.9961 6.42655 43.5889 5.42291 43.5889 4.2412C43.5889 3.12424 44.0287 2.03966 44.8268 1.24646C45.2177 0.857952 45.6738 0.534197 46.1788 0.323756C46.7163 0.113314 47.2864 0 47.8565 0C49.0619 0 50.0718 0.404694 50.8699 1.23027C51.7006 2.03966 52.1078 3.0433 52.1078 4.2412Z" fill="#FFD600"/>
<path fill-rule="evenodd" clip-rule="evenodd" d="M52.3685 30.9025C47.2376 30.9025 43.084 26.7746 43.084 21.6754V9.55078H52.3685V30.9025Z" fill="#103DA0"/>
<path d="M70.0898 9.37292V8.87109H73.7222V9.37292H72.2074V13.3713H71.6047V9.37292H70.0898Z" fill="#103DA0"/>
<path d="M75.0583 8.87109L76.4917 12.659L77.9251 8.87109H78.7558V13.3875H78.1857V9.63192H78.1694L76.7523 13.3875H76.231L74.8139 9.63192H74.7976V13.3875H74.2275V8.87109H75.0583Z" fill="#103DA0"/>
<path d="M26.4688 28.8955C31.1287 28.8955 34.9063 25.1413 34.9063 20.5103C34.9063 15.8792 31.1287 12.125 26.4688 12.125C21.8089 12.125 18.0312 15.8792 18.0312 20.5103C18.0312 25.1413 21.8089 28.8955 26.4688 28.8955Z" fill="#FF6262"/>
<path d="M16.5819 20.5095C16.5819 17.7252 17.7546 15.2161 19.6278 13.4355C17.5918 10.9911 14.5132 9.4209 11.0763 9.4209C4.95175 9.4209 0 14.342 0 20.4286C0 20.461 0 20.4933 0 20.5257V30.7726C0 35.8555 4.15361 39.9834 9.26825 39.9834V31.2906C9.85464 31.3877 10.4573 31.4363 11.0763 31.4363C14.4806 31.4363 17.5266 29.9146 19.5464 27.5188C17.7221 25.7382 16.5819 23.2614 16.5819 20.5095ZM11.0763 22.274C10.0664 22.274 9.23567 21.4484 9.23567 20.4448C9.23567 19.4411 10.0664 18.6156 11.0763 18.6156C12.0862 18.6156 12.9169 19.4411 12.9169 20.4448C12.9169 21.4484 12.0862 22.274 11.0763 22.274Z" fill="#103DA0"/>
<path fill-rule="evenodd" clip-rule="evenodd" d="M32.3496 0V12.6265C34.7766 14.4233 36.3403 17.2885 36.3403 20.5099C36.3403 23.7313 34.7766 26.6127 32.3496 28.3934V30.9025H41.6341V0H32.3496Z" fill="#103DA0"/>
</g>
<defs>
<clipPath id="clip0_2134_29001">
<rect width="79" height="40" fill="white"/>
</clipPath>
</defs>
</svg>
