<svg width="1152" height="140" viewBox="0 0 1152 140" fill="none" xmlns="http://www.w3.org/2000/svg">
<g filter="url(#filter0_dd_2125_5846)">
<path d="M22 32C22 24.268 28.268 18 36 18H1115.69C1123.42 18 1129.69 24.268 1129.69 32V100C1129.69 107.732 1123.42 114 1115.69 114H36C28.2681 114 22 107.732 22 100V32Z" fill="white"/>
<path d="M36 18.5H1115.69C1123.15 18.5 1129.19 24.5442 1129.19 32V100C1129.19 107.456 1123.15 113.5 1115.69 113.5H36C28.5442 113.5 22.5 107.456 22.5 100V32C22.5 24.5442 28.5442 18.5 36 18.5Z" stroke="#FBFCFF"/>
</g>
<defs>
<filter id="filter0_dd_2125_5846" x="0" y="0" width="1151.69" height="140" filterUnits="userSpaceOnUse" color-interpolation-filters="sRGB">
<feFlood flood-opacity="0" result="BackgroundImageFix"/>
<feColorMatrix in="SourceAlpha" type="matrix" values="0 0 0 0 0 0 0 0 0 0 0 0 0 0 0 0 0 0 127 0" result="hardAlpha"/>
<feOffset dy="4"/>
<feGaussianBlur stdDeviation="11"/>
<feColorMatrix type="matrix" values="0 0 0 0 0.0323264 0 0 0 0 0.0598209 0 0 0 0 0.204167 0 0 0 0.1 0"/>
<feBlend mode="normal" in2="BackgroundImageFix" result="effect1_dropShadow_2125_5846"/>
<feColorMatrix in="SourceAlpha" type="matrix" values="0 0 0 0 0 0 0 0 0 0 0 0 0 0 0 0 0 0 127 0" result="hardAlpha"/>
<feOffset dy="-3"/>
<feGaussianBlur stdDeviation="4"/>
<feComposite in2="hardAlpha" operator="out"/>
<feColorMatrix type="matrix" values="0 0 0 0 0.078875 0 0 0 0 0.0770833 0 0 0 0 0.166667 0 0 0 0.1 0"/>
<feBlend mode="normal" in2="effect1_dropShadow_2125_5846" result="effect2_dropShadow_2125_5846"/>
<feBlend mode="normal" in="SourceGraphic" in2="effect2_dropShadow_2125_5846" result="shape"/>
</filter>
</defs>
</svg>
