<svg width="16" height="16" viewBox="0 0 16 16" fill="none" xmlns="http://www.w3.org/2000/svg">
<path d="M0.313477 2.3176C0.313477 1.82557 0.486272 1.41965 0.831847 1.09984C1.17742 0.78002 1.62669 0.620117 2.17961 0.620117C2.72267 0.620117 3.16204 0.777555 3.49775 1.09246C3.84333 1.4172 4.01612 1.84033 4.01612 2.36188C4.01612 2.83423 3.84828 3.22783 3.51256 3.54274C3.16699 3.86748 2.71279 4.02984 2.14999 4.02984H2.13518C1.59212 4.02984 1.15275 3.86748 0.817037 3.54274C0.481325 3.218 0.313477 2.80962 0.313477 2.3176ZM0.506014 15.2332V5.37307H3.79397V15.2332H0.506014ZM5.61567 15.2332H8.90362V9.72748C8.90362 9.38305 8.94312 9.11736 9.0221 8.9304C9.16033 8.59582 9.37015 8.3129 9.65156 8.08166C9.93296 7.8504 10.2859 7.73478 10.7105 7.73478C11.8164 7.73478 12.3693 8.47774 12.3693 9.96365V15.2332H15.6573V9.57987C15.6573 8.12348 15.3117 7.01889 14.6205 6.26609C13.9293 5.5133 13.016 5.1369 11.8805 5.1369C10.6068 5.1369 9.61453 5.68304 8.90362 6.77534V6.80486H8.88881L8.90362 6.77534V5.37307H5.61567C5.63541 5.68796 5.64529 6.66708 5.64529 8.31045C5.64529 9.95381 5.63541 12.2614 5.61567 15.2332Z" fill="white"/>
</svg>
