<svg width="16" height="15" viewBox="0 0 16 15" fill="none" xmlns="http://www.w3.org/2000/svg">
<path d="M0.0800781 2.07983C0.0800781 1.60039 0.248731 1.20485 0.586022 0.89323C0.923314 0.581593 1.36181 0.425781 1.90148 0.425781C2.43152 0.425781 2.86036 0.579191 3.18802 0.886038C3.52531 1.20246 3.69397 1.61477 3.69397 2.12298C3.69397 2.58324 3.53014 2.96677 3.20248 3.27362C2.86519 3.59005 2.42188 3.74826 1.87257 3.74826H1.85811C1.32807 3.74826 0.899231 3.59005 0.571567 3.27362C0.243903 2.95719 0.0800781 2.55926 0.0800781 2.07983ZM0.268 14.665V5.05712H3.47713V14.665H0.268ZM5.25517 14.665H8.4643V9.30011C8.4643 8.9645 8.50285 8.7056 8.57994 8.52343C8.71486 8.19741 8.91965 7.92173 9.1943 7.6964C9.46896 7.47106 9.81348 7.3584 10.2279 7.3584C11.3072 7.3584 11.8469 8.08234 11.8469 9.53024V14.665H15.056V9.15628C15.056 7.73715 14.7187 6.66082 14.0441 5.92729C13.3695 5.19375 12.4781 4.82699 11.3699 4.82699C10.1267 4.82699 9.15816 5.35916 8.4643 6.4235V6.45227H8.44984L8.4643 6.4235V5.05712H5.25517C5.27444 5.36395 5.28408 6.31802 5.28408 7.91934C5.28408 9.52064 5.27444 11.7692 5.25517 14.665Z" fill="white"/>
</svg>
