<svg width="17" height="14" viewBox="0 0 17 14" fill="none" xmlns="http://www.w3.org/2000/svg">
<path d="M11.5096 0.659099V0.65625H12.2514L12.5225 0.710386C12.7032 0.745531 12.8672 0.79159 13.0146 0.848575C13.1621 0.90556 13.3047 0.972047 13.4426 1.04802C13.5805 1.124 13.7056 1.20141 13.8178 1.28024C13.9291 1.35812 14.029 1.44075 14.1174 1.52812C14.2049 1.61645 14.3414 1.63924 14.5268 1.59651C14.7123 1.55377 14.912 1.4944 15.126 1.41843C15.34 1.34245 15.5516 1.25697 15.7609 1.16199C15.9701 1.06701 16.0975 1.00671 16.1432 0.981065C16.1879 0.954482 16.2117 0.940235 16.2145 0.938327L16.2174 0.934053L16.2316 0.926929L16.2459 0.919806L16.2602 0.912683L16.2744 0.90556L16.2773 0.901286L16.2816 0.898437L16.2859 0.895588L16.2887 0.891314L16.303 0.88704L16.3172 0.884191L16.3144 0.90556L16.3101 0.926929L16.303 0.948299L16.2958 0.969668L16.2887 0.983915L16.2816 0.998161L16.2744 1.01953C16.2697 1.03378 16.2649 1.05277 16.2602 1.07652C16.2554 1.10026 16.2102 1.19523 16.1246 1.36144C16.039 1.52765 15.932 1.69623 15.8037 1.86718C15.6753 2.03814 15.5602 2.1673 15.4584 2.25468C15.3557 2.34301 15.2877 2.40474 15.2544 2.43989C15.2211 2.47597 15.1807 2.50921 15.1331 2.53961L15.0618 2.58662L15.0476 2.59375L15.0333 2.60087L15.0304 2.60514L15.0262 2.60799L15.0219 2.61084L15.019 2.61511L15.0048 2.62224L14.9905 2.62936L14.9877 2.63363L14.9834 2.63648L14.9791 2.63933L14.9762 2.64361L14.9734 2.64788L14.9691 2.65073L14.9648 2.65358L14.962 2.65785H15.0333L15.4327 2.57238C15.699 2.51539 15.9534 2.44654 16.196 2.3658L16.5811 2.23759L16.6239 2.22334L16.6453 2.21622L16.6596 2.2091L16.6739 2.20197L16.6881 2.19485L16.7024 2.18773L16.7309 2.18345L16.7595 2.1806V2.2091L16.7523 2.21194L16.7452 2.21622L16.7424 2.22049L16.7381 2.22334L16.7338 2.22619L16.7309 2.23046L16.7281 2.23474L16.7238 2.23759L16.7195 2.24044L16.7167 2.24471L16.7138 2.24899L16.7095 2.25183L16.7024 2.26608L16.6953 2.28033L16.691 2.28318C16.6891 2.28603 16.6287 2.36674 16.5098 2.52536C16.3909 2.68492 16.3267 2.76564 16.3172 2.76755C16.3077 2.7704 16.2944 2.78465 16.2773 2.81029C16.2611 2.83687 16.1603 2.94278 15.9748 3.12798C15.7894 3.31318 15.6078 3.47796 15.4299 3.62233C15.2511 3.76764 15.1607 3.94619 15.1588 4.15799C15.156 4.36883 15.145 4.60723 15.126 4.87315C15.107 5.13909 15.0713 5.42638 15.019 5.73505C14.9667 6.04373 14.8859 6.39276 14.7765 6.78215C14.6671 7.17155 14.534 7.55145 14.3771 7.92186C14.2201 8.29226 14.0561 8.62467 13.8849 8.9191C13.7137 9.21353 13.5568 9.46284 13.4141 9.66703C13.2714 9.87122 13.1264 10.0635 12.979 10.244C12.8316 10.4245 12.6452 10.6277 12.4198 10.8537C12.1934 11.0788 12.0698 11.2023 12.0489 11.2241C12.027 11.245 11.9338 11.3229 11.7692 11.4578C11.6057 11.5936 11.4297 11.7294 11.2414 11.8652C11.054 12.0001 10.8819 12.1126 10.725 12.2029C10.568 12.2931 10.3788 12.3961 10.1572 12.512C9.93653 12.6288 9.6978 12.7371 9.44101 12.8368C9.18423 12.9366 8.91317 13.0292 8.62785 13.1146C8.34253 13.2001 8.06673 13.2666 7.80042 13.3141C7.53413 13.3616 7.23217 13.4019 6.89453 13.4352L6.38809 13.485V13.4922H5.4608V13.485L5.33954 13.4779C5.25871 13.4732 5.19213 13.4684 5.13981 13.4637C5.08752 13.4589 4.89016 13.4328 4.54778 13.3853C4.20539 13.3378 3.93672 13.2903 3.74175 13.2428C3.54679 13.1954 3.2567 13.1051 2.87152 12.9722C2.48634 12.8392 2.15679 12.7048 1.88289 12.569C1.60993 12.4341 1.43874 12.3486 1.36931 12.3126C1.30083 12.2774 1.2238 12.2337 1.1382 12.1815L1.00981 12.1031L1.00697 12.0989L1.00267 12.096L0.998394 12.0932L0.995541 12.0889L0.981275 12.0818L0.967009 12.0747L0.96417 12.0704L0.959876 12.0675L0.955596 12.0647L0.952743 12.0604L0.949904 12.0561L0.94561 12.0533H0.938477V12.0248L0.952743 12.0276L0.967009 12.0319L1.03121 12.039C1.074 12.0438 1.19051 12.0509 1.38072 12.0604C1.57095 12.0699 1.77304 12.0699 1.98703 12.0604C2.20102 12.0509 2.41977 12.0295 2.64326 11.9963C2.86677 11.9631 3.13069 11.9061 3.43503 11.8253C3.73938 11.7446 4.01899 11.6487 4.27388 11.5376C4.52782 11.4255 4.70851 11.3419 4.81599 11.2868C4.9225 11.2327 5.08513 11.132 5.30387 10.9848L5.63199 10.764L5.63484 10.7597L5.63912 10.7569L5.64342 10.754L5.64626 10.7497L5.64911 10.7455L5.65339 10.7426L5.65768 10.7398L5.66052 10.7355L5.67479 10.7312L5.68906 10.7284L5.69191 10.7141L5.69619 10.6999L5.70048 10.697L5.70332 10.6928L5.58919 10.6856C5.51311 10.6809 5.4394 10.6761 5.36807 10.6714C5.29674 10.6666 5.18499 10.6453 5.03282 10.6073C4.88066 10.5693 4.7166 10.5123 4.54064 10.4363C4.3647 10.3604 4.19351 10.2701 4.02707 10.1656C3.86064 10.0612 3.74032 9.97426 3.66614 9.90494C3.59291 9.83654 3.4978 9.73968 3.38082 9.61432C3.26479 9.48801 3.16397 9.35835 3.07838 9.22539C2.99278 9.09243 2.91099 8.93903 2.83302 8.76524L2.71459 8.50596L2.70746 8.48459L2.70033 8.46322L2.69605 8.44897L2.69319 8.43472L2.71459 8.43757L2.73599 8.44185L2.89292 8.46322C2.99755 8.47746 3.1616 8.48221 3.3851 8.47746C3.6086 8.47272 3.76315 8.46322 3.84874 8.44897C3.93434 8.43472 3.98665 8.42522 4.00567 8.42048L4.0342 8.41335L4.06986 8.40623L4.10553 8.39911L4.10838 8.39483L4.11266 8.39198L4.11696 8.38914L4.1198 8.38486L4.09126 8.37774L4.06273 8.37062L4.0342 8.36349L4.00567 8.35637L3.97714 8.34925C3.95812 8.3445 3.92484 8.335 3.87727 8.32075C3.82972 8.30651 3.70133 8.25427 3.49209 8.16404C3.28287 8.07382 3.11642 7.98597 2.99278 7.90049C2.86883 7.81476 2.75065 7.72101 2.63898 7.61984C2.52771 7.51726 2.40551 7.38524 2.27235 7.22379C2.1392 7.06234 2.02032 6.87475 1.9157 6.66106C1.81109 6.44737 1.73262 6.24317 1.68031 6.04847C1.62821 5.85491 1.59383 5.65702 1.57761 5.45725L1.55191 5.15808L1.56618 5.16093L1.58045 5.1652L1.59471 5.17232L1.60898 5.17945L1.62324 5.18657L1.63751 5.19369L1.85863 5.29342C2.00606 5.3599 2.18913 5.41689 2.40787 5.46437C2.62663 5.51186 2.75739 5.53798 2.80019 5.54273L2.86439 5.54985H2.99278L2.98994 5.54558L2.98565 5.54273L2.98137 5.53988L2.97851 5.5356L2.97568 5.53133L2.97138 5.52848L2.9671 5.52563L2.96425 5.52136L2.94998 5.51423L2.93572 5.50711L2.93288 5.50284L2.92858 5.49999L2.9243 5.49714L2.92145 5.49287L2.90718 5.48574L2.89292 5.47862L2.89008 5.47435C2.88723 5.47244 2.84633 5.44205 2.76738 5.38317C2.68939 5.32333 2.6076 5.24593 2.522 5.15095C2.43641 5.05597 2.35081 4.95625 2.26521 4.85178C2.17946 4.74707 2.10308 4.63505 2.03696 4.51699C1.97039 4.39828 1.90001 4.24725 1.82582 4.06396C1.75259 3.88161 1.69696 3.69783 1.65891 3.51263C1.62088 3.32743 1.59948 3.14461 1.59471 2.96415C1.58996 2.78369 1.59471 2.62936 1.60898 2.50114C1.62324 2.37293 1.65178 2.22809 1.69457 2.06663C1.73737 1.90518 1.7992 1.73422 1.88003 1.55377L2.00129 1.28309L2.00843 1.26172L2.01556 1.24035L2.01985 1.2375L2.02269 1.23322L2.02555 1.22895L2.02983 1.2261L2.03412 1.22895L2.03696 1.23322L2.03981 1.2375L2.04409 1.24035L2.04839 1.2432L2.05122 1.24747L2.05408 1.25174L2.05836 1.25459L2.06549 1.26884L2.07262 1.28309L2.07692 1.28594L2.07976 1.29021L2.27235 1.5039C2.40074 1.64637 2.55292 1.80546 2.72886 1.98115C2.90482 2.15685 3.0023 2.24803 3.02131 2.25468C3.04034 2.26228 3.06411 2.28412 3.09264 2.32022C3.12118 2.35536 3.21629 2.43942 3.37796 2.57238C3.53965 2.70534 3.75126 2.85968 4.0128 3.03538C4.27435 3.21108 4.56442 3.38441 4.88303 3.55537C5.20164 3.72633 5.54403 3.88066 5.91018 4.01837C6.27634 4.15609 6.53313 4.24631 6.68054 4.28905C6.82797 4.33179 7.07999 4.3864 7.43664 4.45289C7.79329 4.51937 8.06198 4.56211 8.24267 4.5811C8.42338 4.60009 8.54702 4.61102 8.61359 4.61387L8.71345 4.61672L8.71061 4.59535L8.70632 4.57398L8.67778 4.3959C8.65877 4.27719 8.64925 4.11098 8.64925 3.89728C8.64925 3.68359 8.6659 3.48652 8.69918 3.30606C8.73248 3.1256 8.78241 2.94278 8.84898 2.75758C8.91555 2.57238 8.98071 2.42373 9.04442 2.31167C9.1091 2.20055 9.19374 2.07376 9.29835 1.93129C9.40298 1.78883 9.53851 1.64162 9.70494 1.48966C9.87138 1.33769 10.0616 1.20235 10.2756 1.08364C10.4896 0.964924 10.6869 0.874688 10.8676 0.812959C11.0483 0.75123 11.2005 0.710856 11.3241 0.691866C11.4478 0.672875 11.5096 0.661949 11.5096 0.659099Z" fill="white"/>
</svg>
