<svg width="17" height="14" viewBox="0 0 17 14" fill="none" xmlns="http://www.w3.org/2000/svg">
<path d="M11.0848 0.659099V0.65625H11.8266L12.0977 0.710386C12.2784 0.745531 12.4424 0.79159 12.5898 0.848575C12.7373 0.90556 12.8799 0.972047 13.0178 1.04802C13.1557 1.124 13.2808 1.20141 13.393 1.28024C13.5043 1.35812 13.6042 1.44075 13.6926 1.52812C13.7801 1.61645 13.9166 1.63924 14.102 1.59651C14.2875 1.55377 14.4872 1.4944 14.7012 1.41843C14.9152 1.34245 15.1268 1.25697 15.336 1.16199C15.5453 1.06701 15.6727 1.00671 15.7184 0.981065C15.7631 0.954482 15.7869 0.940235 15.7897 0.938327L15.7926 0.934053L15.8068 0.926929L15.8211 0.919806L15.8354 0.912683L15.8496 0.90556L15.8525 0.901286L15.8568 0.898437L15.8611 0.895588L15.8639 0.891314L15.8782 0.88704L15.8924 0.884191L15.8896 0.90556L15.8853 0.926929L15.8782 0.948299L15.871 0.969668L15.8639 0.983915L15.8568 0.998161L15.8496 1.01953C15.8449 1.03378 15.8401 1.05277 15.8354 1.07652C15.8306 1.10026 15.7854 1.19523 15.6998 1.36144C15.6142 1.52765 15.5072 1.69623 15.3788 1.86718C15.2505 2.03814 15.1354 2.1673 15.0336 2.25468C14.9309 2.34301 14.8629 2.40474 14.8296 2.43989C14.7963 2.47597 14.7559 2.50921 14.7083 2.53961L14.637 2.58662L14.6227 2.59375L14.6085 2.60087L14.6056 2.60514L14.6013 2.60799L14.5971 2.61084L14.5942 2.61511L14.58 2.62224L14.5657 2.62936L14.5628 2.63363L14.5586 2.63648L14.5543 2.63933L14.5514 2.64361L14.5486 2.64788L14.5443 2.65073L14.54 2.65358L14.5372 2.65785H14.6085L15.0079 2.57238C15.2742 2.51539 15.5286 2.44654 15.7712 2.3658L16.1563 2.23759L16.1991 2.22334L16.2205 2.21622L16.2348 2.2091L16.2491 2.20197L16.2633 2.19485L16.2776 2.18773L16.3061 2.18345L16.3347 2.1806V2.2091L16.3275 2.21194L16.3204 2.21622L16.3176 2.22049L16.3133 2.22334L16.309 2.22619L16.3061 2.23046L16.3033 2.23474L16.299 2.23759L16.2947 2.24044L16.2919 2.24471L16.289 2.24899L16.2847 2.25183L16.2776 2.26608L16.2705 2.28033L16.2662 2.28318C16.2643 2.28603 16.2039 2.36674 16.085 2.52536C15.9661 2.68492 15.9019 2.76564 15.8924 2.76755C15.8829 2.7704 15.8696 2.78465 15.8525 2.81029C15.8363 2.83687 15.7355 2.94278 15.55 3.12798C15.3646 3.31318 15.1829 3.47796 15.0051 3.62233C14.8263 3.76764 14.7359 3.94619 14.734 4.15799C14.7312 4.36883 14.7202 4.60723 14.7012 4.87315C14.6822 5.13909 14.6465 5.42638 14.5942 5.73505C14.5419 6.04373 14.4611 6.39276 14.3517 6.78215C14.2423 7.17155 14.1092 7.55145 13.9522 7.92186C13.7953 8.29226 13.6313 8.62467 13.4601 8.9191C13.2889 9.21353 13.132 9.46284 12.9893 9.66703C12.8466 9.87122 12.7016 10.0635 12.5542 10.244C12.4068 10.4245 12.2204 10.6277 11.995 10.8537C11.7686 11.0788 11.645 11.2023 11.624 11.2241C11.6022 11.245 11.509 11.3229 11.3444 11.4578C11.1808 11.5936 11.0049 11.7294 10.8166 11.8652C10.6292 12.0001 10.4571 12.1126 10.3001 12.2029C10.1432 12.2931 9.95397 12.3961 9.73236 12.512C9.51173 12.6288 9.273 12.7371 9.01621 12.8368C8.75942 12.9366 8.48837 13.0292 8.20305 13.1146C7.91773 13.2001 7.64192 13.2666 7.37562 13.3141C7.10933 13.3616 6.80736 13.4019 6.46973 13.4352L5.96328 13.485V13.4922H5.036V13.485L4.91473 13.4779C4.8339 13.4732 4.76732 13.4684 4.71501 13.4637C4.66271 13.4589 4.46535 13.4328 4.12297 13.3853C3.78059 13.3378 3.51191 13.2903 3.31694 13.2428C3.12198 13.1954 2.8319 13.1051 2.44672 12.9722C2.06153 12.8392 1.73199 12.7048 1.45808 12.569C1.18513 12.4341 1.01394 12.3486 0.944505 12.3126C0.876028 12.2774 0.798992 12.2337 0.713396 12.1815L0.585002 12.1031L0.582163 12.0989L0.577869 12.096L0.573589 12.0932L0.570736 12.0889L0.55647 12.0818L0.542204 12.0747L0.539365 12.0704L0.535071 12.0675L0.530791 12.0647L0.527938 12.0604L0.525099 12.0561L0.520805 12.0533H0.513672V12.0248L0.527938 12.0276L0.542204 12.0319L0.606401 12.039C0.649199 12.0438 0.765709 12.0509 0.955918 12.0604C1.14614 12.0699 1.34823 12.0699 1.56222 12.0604C1.77621 12.0509 1.99497 12.0295 2.21846 11.9963C2.44196 11.9631 2.70589 11.9061 3.01022 11.8253C3.31457 11.7446 3.59419 11.6487 3.84908 11.5376C4.10301 11.4255 4.28371 11.3419 4.39119 11.2868C4.4977 11.2327 4.66033 11.132 4.87907 10.9848L5.20719 10.764L5.21004 10.7597L5.21432 10.7569L5.21861 10.754L5.22145 10.7497L5.22431 10.7455L5.22859 10.7426L5.23288 10.7398L5.23572 10.7355L5.24998 10.7312L5.26425 10.7284L5.2671 10.7141L5.27138 10.6999L5.27568 10.697L5.27852 10.6928L5.16439 10.6856C5.08831 10.6809 5.0146 10.6761 4.94327 10.6714C4.87194 10.6666 4.76019 10.6453 4.60801 10.6073C4.45585 10.5693 4.29179 10.5123 4.11584 10.4363C3.93989 10.3604 3.7687 10.2701 3.60226 10.1656C3.43583 10.0612 3.31551 9.97426 3.24133 9.90494C3.1681 9.83654 3.07299 9.73968 2.95601 9.61432C2.83999 9.48801 2.73917 9.35835 2.65357 9.22539C2.56798 9.09243 2.48619 8.93903 2.40821 8.76524L2.28979 8.50596L2.28266 8.48459L2.27552 8.46322L2.27124 8.44897L2.26839 8.43472L2.28979 8.43757L2.31119 8.44185L2.46811 8.46322C2.57274 8.47746 2.7368 8.48221 2.96029 8.47746C3.1838 8.47272 3.33834 8.46322 3.42394 8.44897C3.50953 8.43472 3.56185 8.42522 3.58086 8.42048L3.60939 8.41335L3.64506 8.40623L3.68072 8.39911L3.68358 8.39483L3.68786 8.39198L3.69215 8.38914L3.69499 8.38486L3.66646 8.37774L3.63793 8.37062L3.60939 8.36349L3.58086 8.35637L3.55233 8.34925C3.53331 8.3445 3.50003 8.335 3.45247 8.32075C3.40492 8.30651 3.27653 8.25427 3.06729 8.16404C2.85806 8.07382 2.69162 7.98597 2.56798 7.90049C2.44403 7.81476 2.32584 7.72101 2.21418 7.61984C2.1029 7.51726 1.9807 7.38524 1.84754 7.22379C1.7144 7.06234 1.59552 6.87475 1.49089 6.66106C1.38628 6.44737 1.30782 6.24317 1.2555 6.04847C1.2034 5.85491 1.16903 5.65702 1.1528 5.45725L1.12711 5.15808L1.14138 5.16093L1.15564 5.1652L1.16991 5.17232L1.18417 5.17945L1.19844 5.18657L1.21271 5.19369L1.43383 5.29342C1.58125 5.3599 1.76433 5.41689 1.98307 5.46437C2.20183 5.51186 2.33259 5.53798 2.37539 5.54273L2.43958 5.54985H2.56798L2.56514 5.54558L2.56084 5.54273L2.55656 5.53988L2.55371 5.5356L2.55087 5.53133L2.54658 5.52848L2.5423 5.52563L2.53944 5.52136L2.52518 5.51423L2.51091 5.50711L2.50807 5.50284L2.50378 5.49999L2.4995 5.49714L2.49665 5.49287L2.48238 5.48574L2.46811 5.47862L2.46528 5.47435C2.46242 5.47244 2.42152 5.44205 2.34257 5.38317C2.26458 5.32333 2.18279 5.24593 2.0972 5.15095C2.0116 5.05597 1.92601 4.95625 1.84041 4.85178C1.75466 4.74707 1.67828 4.63505 1.61215 4.51699C1.54559 4.39828 1.4752 4.24725 1.40102 4.06396C1.32779 3.88161 1.27215 3.69783 1.23411 3.51263C1.19607 3.32743 1.17467 3.14461 1.16991 2.96415C1.16516 2.78369 1.16991 2.62936 1.18417 2.50114C1.19844 2.37293 1.22697 2.22809 1.26977 2.06663C1.31257 1.90518 1.3744 1.73422 1.45523 1.55377L1.57649 1.28309L1.58362 1.26172L1.59076 1.24035L1.59505 1.2375L1.59789 1.23322L1.60074 1.22895L1.60502 1.2261L1.60932 1.22895L1.61215 1.23322L1.61501 1.2375L1.61929 1.24035L1.62358 1.2432L1.62642 1.24747L1.62927 1.25174L1.63355 1.25459L1.64069 1.26884L1.64782 1.28309L1.65211 1.28594L1.65495 1.29021L1.84754 1.5039C1.97594 1.64637 2.12811 1.80546 2.30406 1.98115C2.48001 2.15685 2.57749 2.24803 2.59651 2.25468C2.61554 2.26228 2.63931 2.28412 2.66784 2.32022C2.69637 2.35536 2.79148 2.43942 2.95316 2.57238C3.11485 2.70534 3.32646 2.85968 3.588 3.03538C3.84955 3.21108 4.13962 3.38441 4.45822 3.55537C4.77684 3.72633 5.11922 3.88066 5.48537 4.01837C5.85154 4.15609 6.10833 4.24631 6.25574 4.28905C6.40316 4.33179 6.65519 4.3864 7.01184 4.45289C7.36849 4.51937 7.63717 4.56211 7.81787 4.5811C7.99857 4.60009 8.12222 4.61102 8.18878 4.61387L8.28864 4.61672L8.2858 4.59535L8.28151 4.57398L8.25298 4.3959C8.23396 4.27719 8.22445 4.11098 8.22445 3.89728C8.22445 3.68359 8.2411 3.48652 8.27438 3.30606C8.30767 3.1256 8.35761 2.94278 8.42417 2.75758C8.49075 2.57238 8.5559 2.42373 8.61961 2.31167C8.6843 2.20055 8.76894 2.07376 8.87355 1.93129C8.97818 1.78883 9.1137 1.64162 9.28013 1.48966C9.44657 1.33769 9.63678 1.20235 9.85077 1.08364C10.0648 0.964924 10.2621 0.874688 10.4428 0.812959C10.6235 0.75123 10.7757 0.710856 10.8993 0.691866C11.023 0.672875 11.0848 0.661949 11.0848 0.659099Z" fill="white"/>
</svg>
