<svg width="16" height="16" viewBox="0 0 16 16" fill="none" xmlns="http://www.w3.org/2000/svg">
<path d="M0.179688 2.3176C0.179688 1.82557 0.352483 1.41965 0.698058 1.09984C1.04363 0.78002 1.4929 0.620117 2.04582 0.620117C2.58888 0.620117 3.02825 0.777555 3.36397 1.09246C3.70954 1.4172 3.88234 1.84033 3.88234 2.36188C3.88234 2.83423 3.71449 3.22783 3.37878 3.54274C3.0332 3.86748 2.579 4.02984 2.0162 4.02984H2.00139C1.45833 4.02984 1.01896 3.86748 0.683248 3.54274C0.347536 3.218 0.179688 2.80962 0.179688 2.3176ZM0.372225 15.2332V5.37307H3.66018V15.2332H0.372225ZM5.48188 15.2332H8.76983V9.72748C8.76983 9.38305 8.80933 9.11736 8.88832 8.9304C9.02654 8.59582 9.23637 8.3129 9.51777 8.08166C9.79917 7.8504 10.1521 7.73478 10.5767 7.73478C11.6826 7.73478 12.2355 8.47774 12.2355 9.96365V15.2332H15.5235V9.57987C15.5235 8.12348 15.1779 7.01889 14.4867 6.26609C13.7956 5.5133 12.8822 5.1369 11.7468 5.1369C10.473 5.1369 9.48074 5.68304 8.76983 6.77534V6.80486H8.75502L8.76983 6.77534V5.37307H5.48188C5.50162 5.68796 5.5115 6.66708 5.5115 8.31045C5.5115 9.95381 5.50162 12.2614 5.48188 15.2332Z" fill="white"/>
</svg>
