<svg width="16" height="14" viewBox="0 0 16 14" fill="none" xmlns="http://www.w3.org/2000/svg">
<path d="M10.6434 0.659099V0.65625H11.3852L11.6563 0.710386C11.837 0.745531 12.001 0.79159 12.1484 0.848575C12.2959 0.90556 12.4385 0.972047 12.5764 1.04802C12.7143 1.124 12.8394 1.20141 12.9516 1.28024C13.0629 1.35812 13.1628 1.44075 13.2512 1.52812C13.3387 1.61645 13.4752 1.63924 13.6606 1.59651C13.8461 1.55377 14.0458 1.4944 14.2598 1.41843C14.4738 1.34245 14.6854 1.25697 14.8946 1.16199C15.1039 1.06701 15.2313 1.00671 15.277 0.981065C15.3217 0.954482 15.3455 0.940235 15.3483 0.938327L15.3512 0.934053L15.3654 0.926929L15.3797 0.919806L15.394 0.912683L15.4082 0.90556L15.4111 0.901286L15.4154 0.898437L15.4196 0.895588L15.4225 0.891314L15.4368 0.88704L15.451 0.884191L15.4482 0.90556L15.4439 0.926929L15.4368 0.948299L15.4296 0.969668L15.4225 0.983915L15.4154 0.998161L15.4082 1.01953C15.4035 1.03378 15.3987 1.05277 15.394 1.07652C15.3892 1.10026 15.344 1.19523 15.2584 1.36144C15.1728 1.52765 15.0658 1.69623 14.9374 1.86718C14.809 2.03814 14.694 2.1673 14.5922 2.25468C14.4895 2.34301 14.4215 2.40474 14.3882 2.43989C14.3549 2.47597 14.3145 2.50921 14.2669 2.53961L14.1956 2.58662L14.1813 2.59375L14.1671 2.60087L14.1642 2.60514L14.1599 2.60799L14.1557 2.61084L14.1528 2.61511L14.1385 2.62224L14.1243 2.62936L14.1214 2.63363L14.1171 2.63648L14.1129 2.63933L14.11 2.64361L14.1072 2.64788L14.1029 2.65073L14.0986 2.65358L14.0957 2.65785H14.1671L14.5665 2.57238C14.8328 2.51539 15.0872 2.44654 15.3298 2.3658L15.7149 2.23759L15.7577 2.22334L15.7791 2.21622L15.7934 2.2091L15.8077 2.20197L15.8219 2.19485L15.8362 2.18773L15.8647 2.18345L15.8933 2.1806V2.2091L15.8861 2.21194L15.879 2.21622L15.8762 2.22049L15.8719 2.22334L15.8676 2.22619L15.8647 2.23046L15.8619 2.23474L15.8576 2.23759L15.8533 2.24044L15.8505 2.24471L15.8476 2.24899L15.8433 2.25183L15.8362 2.26608L15.8291 2.28033L15.8248 2.28318C15.8229 2.28603 15.7625 2.36674 15.6436 2.52536C15.5247 2.68492 15.4605 2.76564 15.451 2.76755C15.4415 2.7704 15.4282 2.78465 15.4111 2.81029C15.3949 2.83687 15.2941 2.94278 15.1086 3.12798C14.9232 3.31318 14.7415 3.47796 14.5637 3.62233C14.3849 3.76764 14.2945 3.94619 14.2926 4.15799C14.2898 4.36883 14.2788 4.60723 14.2598 4.87315C14.2408 5.13909 14.2051 5.42638 14.1528 5.73505C14.1005 6.04373 14.0197 6.39276 13.9103 6.78215C13.8009 7.17155 13.6678 7.55145 13.5108 7.92186C13.3539 8.29226 13.1899 8.62467 13.0187 8.9191C12.8475 9.21353 12.6905 9.46284 12.5479 9.66703C12.4052 9.87122 12.2602 10.0635 12.1128 10.244C11.9654 10.4245 11.779 10.6277 11.5536 10.8537C11.3272 11.0788 11.2036 11.2023 11.1826 11.2241C11.1608 11.245 11.0676 11.3229 10.903 11.4578C10.7394 11.5936 10.5635 11.7294 10.3752 11.8652C10.1878 12.0001 10.0157 12.1126 9.85874 12.2029C9.70182 12.2931 9.51256 12.3961 9.29096 12.512C9.07032 12.6288 8.83159 12.7371 8.5748 12.8368C8.31802 12.9366 8.04696 13.0292 7.76164 13.1146C7.47632 13.2001 7.20052 13.2666 6.93421 13.3141C6.66792 13.3616 6.36596 13.4019 6.02832 13.4352L5.52188 13.485V13.4922H4.59459V13.485L4.47333 13.4779C4.3925 13.4732 4.32592 13.4684 4.2736 13.4637C4.2213 13.4589 4.02395 13.4328 3.68156 13.3853C3.33918 13.3378 3.07051 13.2903 2.87554 13.2428C2.68058 13.1954 2.39049 13.1051 2.00531 12.9722C1.62013 12.8392 1.29058 12.7048 1.01667 12.569C0.743724 12.4341 0.572532 12.3486 0.503099 12.3126C0.434622 12.2774 0.357586 12.2337 0.27199 12.1815L0.143596 12.1031L0.140757 12.0989L0.136463 12.096L0.132183 12.0932L0.12933 12.0889L0.115064 12.0818L0.100798 12.0747L0.0979587 12.0704L0.0936646 12.0675L0.0893848 12.0647L0.0865316 12.0604L0.0836927 12.0561L0.0793986 12.0533H0.0722656V12.0248L0.0865316 12.0276L0.100798 12.0319L0.164995 12.039C0.207793 12.0438 0.324303 12.0509 0.514512 12.0604C0.704735 12.0699 0.906827 12.0699 1.12082 12.0604C1.33481 12.0509 1.55356 12.0295 1.77705 11.9963C2.00056 11.9631 2.26448 11.9061 2.56882 11.8253C2.87317 11.7446 3.15278 11.6487 3.40767 11.5376C3.66161 11.4255 3.8423 11.3419 3.94978 11.2868C4.05629 11.2327 4.21892 11.132 4.43766 10.9848L4.76578 10.764L4.76863 10.7597L4.77291 10.7569L4.77721 10.754L4.78005 10.7497L4.7829 10.7455L4.78718 10.7426L4.79147 10.7398L4.79431 10.7355L4.80858 10.7312L4.82284 10.7284L4.8257 10.7141L4.82998 10.6999L4.83427 10.697L4.83711 10.6928L4.72298 10.6856C4.6469 10.6809 4.57319 10.6761 4.50186 10.6714C4.43053 10.6666 4.31878 10.6453 4.16661 10.6073C4.01445 10.5693 3.85039 10.5123 3.67443 10.4363C3.49849 10.3604 3.3273 10.2701 3.16086 10.1656C2.99443 10.0612 2.87411 9.97426 2.79993 9.90494C2.7267 9.83654 2.63159 9.73968 2.51461 9.61432C2.39858 9.48801 2.29776 9.35835 2.21217 9.22539C2.12657 9.09243 2.04478 8.93903 1.9668 8.76524L1.84838 8.50596L1.84125 8.48459L1.83412 8.46322L1.82984 8.44897L1.82698 8.43472L1.84838 8.43757L1.86978 8.44185L2.02671 8.46322C2.13133 8.47746 2.29539 8.48221 2.51889 8.47746C2.74239 8.47272 2.89693 8.46322 2.98253 8.44897C3.06813 8.43472 3.12044 8.42522 3.13946 8.42048L3.16799 8.41335L3.20365 8.40623L3.23932 8.39911L3.24217 8.39483L3.24645 8.39198L3.25075 8.38914L3.25358 8.38486L3.22505 8.37774L3.19652 8.37062L3.16799 8.36349L3.13946 8.35637L3.11092 8.34925C3.09191 8.3445 3.05862 8.335 3.01106 8.32075C2.96351 8.30651 2.83512 8.25427 2.62588 8.16404C2.41665 8.07382 2.25021 7.98597 2.12657 7.90049C2.00262 7.81476 1.88443 7.72101 1.77277 7.61984C1.6615 7.51726 1.5393 7.38524 1.40614 7.22379C1.27299 7.06234 1.15411 6.87475 1.04949 6.66106C0.944874 6.44737 0.866411 6.24317 0.814098 6.04847C0.761995 5.85491 0.72762 5.65702 0.711397 5.45725L0.685704 5.15808L0.69997 5.16093L0.714236 5.1652L0.728502 5.17232L0.742768 5.17945L0.757034 5.18657L0.7713 5.19369L0.992423 5.29342C1.13985 5.3599 1.32292 5.41689 1.54166 5.46437C1.76042 5.51186 1.89118 5.53798 1.93398 5.54273L1.99818 5.54985H2.12657L2.12373 5.54558L2.11944 5.54273L2.11516 5.53988L2.1123 5.5356L2.10947 5.53133L2.10517 5.52848L2.10089 5.52563L2.09804 5.52136L2.08377 5.51423L2.06951 5.50711L2.06667 5.50284L2.06237 5.49999L2.05809 5.49714L2.05524 5.49287L2.04097 5.48574L2.02671 5.47862L2.02387 5.47435C2.02102 5.47244 1.98012 5.44205 1.90117 5.38317C1.82317 5.32333 1.74139 5.24593 1.65579 5.15095C1.5702 5.05597 1.4846 4.95625 1.399 4.85178C1.31325 4.74707 1.23687 4.63505 1.17075 4.51699C1.10418 4.39828 1.03379 4.24725 0.959611 4.06396C0.886384 3.88161 0.830746 3.69783 0.792699 3.51263C0.754666 3.32743 0.733267 3.14461 0.728502 2.96415C0.723751 2.78369 0.728502 2.62936 0.742768 2.50114C0.757034 2.37293 0.785566 2.22809 0.828364 2.06663C0.871162 1.90518 0.932991 1.73422 1.01382 1.55377L1.13508 1.28309L1.14222 1.26172L1.14935 1.24035L1.15364 1.2375L1.15648 1.23322L1.15934 1.22895L1.16361 1.2261L1.16791 1.22895L1.17075 1.23322L1.1736 1.2375L1.17788 1.24035L1.18217 1.2432L1.18501 1.24747L1.18787 1.25174L1.19215 1.25459L1.19928 1.26884L1.20641 1.28309L1.21071 1.28594L1.21355 1.29021L1.40614 1.5039C1.53453 1.64637 1.68671 1.80546 1.86265 1.98115C2.03861 2.15685 2.13609 2.24803 2.1551 2.25468C2.17413 2.26228 2.1979 2.28412 2.22643 2.32022C2.25496 2.35536 2.35008 2.43942 2.51175 2.57238C2.67344 2.70534 2.88505 2.85968 3.14659 3.03538C3.40814 3.21108 3.69821 3.38441 4.01682 3.55537C4.33543 3.72633 4.67782 3.88066 5.04397 4.01837C5.41013 4.15609 5.66692 4.24631 5.81433 4.28905C5.96176 4.33179 6.21378 4.3864 6.57043 4.45289C6.92708 4.51937 7.19577 4.56211 7.37646 4.5811C7.55717 4.60009 7.68081 4.61102 7.74738 4.61387L7.84724 4.61672L7.8444 4.59535L7.8401 4.57398L7.81157 4.3959C7.79256 4.27719 7.78304 4.11098 7.78304 3.89728C7.78304 3.68359 7.79969 3.48652 7.83297 3.30606C7.86627 3.1256 7.9162 2.94278 7.98276 2.75758C8.04934 2.57238 8.1145 2.42373 8.17821 2.31167C8.24289 2.20055 8.32753 2.07376 8.43214 1.93129C8.53677 1.78883 8.6723 1.64162 8.83872 1.48966C9.00517 1.33769 9.19537 1.20235 9.40936 1.08364C9.62335 0.964924 9.82071 0.874688 10.0014 0.812959C10.1821 0.75123 10.3343 0.710856 10.4579 0.691866C10.5816 0.672875 10.6434 0.661949 10.6434 0.659099Z" fill="white"/>
</svg>
