<svg width="17" height="16" viewBox="0 0 17 16" fill="none" xmlns="http://www.w3.org/2000/svg">
<path d="M0.753906 2.3176C0.753906 1.82557 0.926701 1.41965 1.27228 1.09984C1.61785 0.78002 2.06712 0.620117 2.62004 0.620117C3.1631 0.620117 3.60247 0.777555 3.93818 1.09246C4.28376 1.4172 4.45655 1.84033 4.45655 2.36188C4.45655 2.83423 4.28871 3.22783 3.95299 3.54274C3.60742 3.86748 3.15322 4.02984 2.59042 4.02984H2.57561C2.03255 4.02984 1.59318 3.86748 1.25747 3.54274C0.921755 3.218 0.753906 2.80962 0.753906 2.3176ZM0.946444 15.2332V5.37307H4.2344V15.2332H0.946444ZM6.0561 15.2332H9.34405V9.72748C9.34405 9.38305 9.38355 9.11736 9.46253 8.9304C9.60076 8.59582 9.81058 8.3129 10.092 8.08166C10.3734 7.8504 10.7264 7.73478 11.1509 7.73478C12.2568 7.73478 12.8097 8.47774 12.8097 9.96365V15.2332H16.0977V9.57987C16.0977 8.12348 15.7521 7.01889 15.0609 6.26609C14.3698 5.5133 13.4565 5.1369 12.321 5.1369C11.0473 5.1369 10.055 5.68304 9.34405 6.77534V6.80486H9.32924L9.34405 6.77534V5.37307H6.0561C6.07584 5.68796 6.08572 6.66708 6.08572 8.31045C6.08572 9.95381 6.07584 12.2614 6.0561 15.2332Z" fill="white"/>
</svg>
